<?xml version="1.0" encoding="UTF-8"?>
<svg version="1.1" xmlns="http://www.w3.org/2000/svg" width="500" height="500">
<path d="M0 0 C3.95420737 0.00010243 7.90823846 -0.01367658 11.86240387 -0.03077221 C14.95968408 -0.04197166 18.05692221 -0.04391698 21.15422058 -0.04339027 C22.61159384 -0.04455355 24.0689688 -0.04887969 25.52632141 -0.05672264 C52.60106765 -0.18911682 52.60106765 -0.18911682 62.15625 7.80249023 C71.14169675 16.80661774 70.60840443 29.30984673 70.61384583 41.21405029 C70.6051589 43.13676232 70.59584104 45.05947159 70.5859375 46.98217773 C70.58541782 48.98610433 70.5859397 50.99003143 70.58744812 52.99395752 C70.58735888 57.17288931 70.57702483 61.35162625 70.55883789 65.53051758 C70.53609358 70.87216677 70.53562256 76.21353338 70.54235554 81.55521774 C70.54570405 85.68516529 70.53904976 89.81504902 70.5292263 93.94498444 C70.52539367 95.91445837 70.524218 97.88393942 70.52581215 99.85341644 C70.52618509 102.60708556 70.51350084 105.36039838 70.49731445 108.11401367 C70.49979187 108.91731613 70.50226929 109.72061859 70.50482178 110.54826355 C70.43237331 118.31322559 69.22331173 124.9682716 64.22265625 131.18530273 C52.01293311 143.08195605 34.96350084 140.33941464 18.953125 140.31811523 C17.13763923 140.318791 15.32215355 140.31976328 13.50666809 140.3210144 C9.73075485 140.3224767 5.95486551 140.32038331 2.17895508 140.31567383 C-2.63659709 140.30995683 -7.45209375 140.31327734 -12.26764393 140.31924629 C-16.00561434 140.3228743 -19.74357176 140.3217034 -23.48154259 140.3191185 C-25.25678196 140.31845649 -27.03202256 140.31925197 -28.80726051 140.32159805 C-56.75168777 140.35045693 -56.75168777 140.35045693 -65.33474064 132.80938625 C-70.97484179 126.45975672 -72.51721216 119.24559014 -72.40844727 111.01318359 C-72.41560257 110.05082291 -72.42275787 109.08846222 -72.43013 108.09693909 C-72.44690083 104.94751046 -72.42768362 101.79952869 -72.40625 98.65014648 C-72.4070797 96.44397362 -72.40954287 94.23780083 -72.41355896 92.03163147 C-72.41640894 87.42112492 -72.40179231 82.81110631 -72.37426758 78.20068359 C-72.34016675 72.3073482 -72.34621768 66.41488355 -72.36493015 60.52150631 C-72.37552534 55.97026888 -72.36653968 51.41923218 -72.35154533 46.86801338 C-72.34638294 44.6956193 -72.34682158 42.52320409 -72.35309029 40.35081291 C-72.35857369 37.30942959 -72.33806753 34.2692709 -72.31079102 31.22802734 C-72.31731689 30.34102142 -72.32384277 29.4540155 -72.33056641 28.54013062 C-72.19622722 19.67879474 -69.03636581 12.44432479 -62.77734375 6.18530273 C-56.46305314 1.74823365 -50.7873814 0.98349456 -43.24609375 0.63452148 C-42.34427368 0.59268234 -41.44245361 0.5508432 -40.51330566 0.50773621 C-27.01695592 -0.04400876 -13.50533337 -0.00183241 0 0 Z " fill="#08213A" transform="translate(93.77734375,172.814697265625)"/>
<path d="M0 0 C0.79075928 0.00523682 1.58151855 0.01047363 2.39624023 0.01586914 C3.67724609 0.02070313 3.67724609 0.02070313 4.98413086 0.02563477 C5.88196289 0.03401367 6.77979492 0.04239258 7.70483398 0.05102539 C8.6065332 0.05553711 9.50823242 0.06004883 10.43725586 0.06469727 C12.67234712 0.07652315 14.90730835 0.09300319 17.14233398 0.11352539 C17.79337565 2.39217122 18.44441732 4.67081706 19.09545898 6.94946289 C19.96890947 9.58936921 20.93485894 12.11870402 21.98266602 14.69140625 C24.02241056 19.76477334 25.9084411 24.8812396 27.74389648 30.03149414 C28.06643402 30.93297684 28.38897156 31.83445953 28.72128296 32.76325989 C29.39610457 34.65108137 30.069974 36.53924346 30.74291992 38.42773438 C31.76883013 41.30522181 32.79914822 44.18110492 33.82983398 47.05688477 C34.4889534 48.90249318 35.14781647 50.74819318 35.80639648 52.59399414 C36.26425034 53.87079292 36.26425034 53.87079292 36.73135376 55.17338562 C38.37056788 59.78468464 39.85572539 64.39133054 41.14233398 69.11352539 C40.14233398 70.11352539 40.14233398 70.11352539 36.54467773 70.21118164 C35.05636531 70.20450759 33.56806966 70.19254722 32.07983398 70.17602539 C31.3212207 70.17151367 30.56260742 70.16700195 29.78100586 70.16235352 C27.90141527 70.15053219 26.021865 70.13259617 24.14233398 70.11352539 C23.86518555 69.27047852 23.58803711 68.42743164 23.30249023 67.55883789 C22.75915039 65.9152832 22.75915039 65.9152832 22.20483398 64.23852539 C21.66536133 62.60270508 21.66536133 62.60270508 21.11499023 60.93383789 C20.24319324 58.20593857 20.24319324 58.20593857 19.14233398 56.11352539 C10.89233398 55.78352539 2.64233398 55.45352539 -5.85766602 55.11352539 C-6.51766602 58.08352539 -7.17766602 61.05352539 -7.85766602 64.11352539 C-8.84766602 66.09352539 -9.83766602 68.07352539 -10.85766602 70.11352539 C-16.13766602 70.11352539 -21.41766602 70.11352539 -26.85766602 70.11352539 C-25.63215222 63.99797127 -23.98990185 58.48960599 -21.60766602 52.73852539 C-19.02012974 46.31369042 -16.75355291 39.86305888 -14.73266602 33.23852539 C-12.80720987 26.94430191 -10.66212896 20.88284548 -8.02172852 14.84399414 C-6.39208543 11.02144206 -5.02361831 7.11762644 -3.65454102 3.19555664 C-2.48971025 0.15215078 -2.48971025 0.15215078 0 0 Z M6.14233398 18.11352539 C4.97334589 21.75861858 3.80753239 25.40471919 2.64233398 29.05102539 C2.3084668 30.09194336 1.97459961 31.13286133 1.63061523 32.20532227 C1.31479492 33.19467773 0.99897461 34.1840332 0.67358398 35.20336914 C0.38032227 36.11981201 0.08706055 37.03625488 -0.21508789 37.98046875 C-0.90573995 39.90181776 -0.90573995 39.90181776 -0.85766602 41.11352539 C4.42233398 41.11352539 9.70233398 41.11352539 15.14233398 41.11352539 C14.38081847 38.21495053 13.60854712 35.31998222 12.82983398 32.42602539 C12.61649414 31.6094043 12.4031543 30.7927832 12.18334961 29.95141602 C11.00283079 25.59935411 9.83403308 21.81555412 7.14233398 18.11352539 C6.81233398 18.11352539 6.48233398 18.11352539 6.14233398 18.11352539 Z " fill="#E9E9E5" transform="translate(210.857666015625,208.886474609375)"/>
<path d="M0 0 C4.48704195 5.23971373 4.53994822 9.47369213 4.390625 16.2109375 C4.38496521 17.17907379 4.37930542 18.14721008 4.37347412 19.14468384 C4.35117112 22.22196929 4.30098556 25.2980694 4.25 28.375 C4.22992717 30.46743104 4.21167777 32.55988043 4.1953125 34.65234375 C4.15132614 39.76868247 4.08234019 44.8841406 4 50 C1.87527424 50.05386629 -0.24983652 50.09273071 -2.375 50.125 C-4.15003906 50.15980469 -4.15003906 50.15980469 -5.9609375 50.1953125 C-9 50 -9 50 -11 48 C-11.89138672 48.34224609 -11.89138672 48.34224609 -12.80078125 48.69140625 C-20.10997017 51.22631936 -26.68572248 51.82063211 -34.109375 49.27734375 C-37.89605728 47.40827621 -40.46006746 44.84255901 -42.33984375 41.05859375 C-44.09516727 35.5848926 -43.82942598 30.68957143 -41.3125 25.5625 C-34.88990105 18.44556603 -25.36446041 16.79779646 -16.12890625 16.30859375 C-13.7036019 16.1126688 -13.7036019 16.1126688 -11 14 C-10.74969023 11.41619823 -10.74969023 11.41619823 -11 9 C-17.06968051 7.84650152 -17.06968051 7.84650152 -22.9375 9.25 C-25.2081442 11.01368491 -25.2081442 11.01368491 -27 14 C-30.2578125 14.29296875 -30.2578125 14.29296875 -34.125 14.1875 C-35.40632813 14.16042969 -36.68765625 14.13335937 -38.0078125 14.10546875 C-38.99523437 14.07066406 -39.98265625 14.03585938 -41 14 C-40.79077357 8.03704684 -39.82230438 4.81710411 -35.67578125 0.47265625 C-26.66597691 -7.4450506 -9.40007321 -7.31116805 0 0 Z M-26 29 C-27.38125018 31.76250036 -27.19079306 33.94731099 -27 37 C-24.53942818 39.46057182 -23.59278095 39.37747115 -20.1875 39.5 C-17.38420192 39.4432038 -15.60565764 39.38772785 -13.23046875 37.8671875 C-10.81317254 35.20607179 -10.01650611 33.17826603 -9.6875 29.625 C-9.790625 28.75875 -9.89375 27.8925 -10 27 C-15.48972839 26.76639454 -20.76943854 27.18165031 -26 29 Z " fill="#F5F6F1" transform="translate(429,229)"/>
<path d="M0 0 C0.80308594 -0.02384766 1.60617187 -0.04769531 2.43359375 -0.07226562 C9.87633984 -0.05417143 14.68320689 2.81793235 19.9375 7.9375 C21.84945073 11.14957723 22.20997229 13.86464671 22.5 17.5625 C17.79976296 17.848712 13.19224956 18.01884006 8.5 17.5625 C5.6875 15.0625 5.6875 15.0625 3.5 12.5625 C0.44818306 12.00713402 -2.44967117 11.99318519 -5.5 12.5625 C-6.16 13.2225 -6.82 13.8825 -7.5 14.5625 C-7.6490712 16.6370356 -7.6490712 16.6370356 -6.5 18.5625 C-2.20435649 20.5451047 2.48919508 21.17117569 7.109375 22.0703125 C12.67942095 23.21708667 17.02143401 25.00000433 21.5 28.5625 C24.33335915 32.94132778 24.17062642 38.52068208 23.5 43.5625 C21.6875 47 21.6875 47 19.5 49.5625 C19.025625 50.14 18.55125 50.7175 18.0625 51.3125 C12.13998722 56.05051022 3.73221408 56.01750685 -3.5 55.5625 C-9.96870509 54.79241606 -15.49767854 52.83678406 -20.5 48.5625 C-23.08936372 44.67845442 -23.62358196 42.1350325 -23.5 37.5625 C-21.25165504 37.42723861 -19.00097486 37.33039196 -16.75 37.25 C-15.49703125 37.19199219 -14.2440625 37.13398438 -12.953125 37.07421875 C-8.56156437 37.69519735 -8.08195554 39.13941255 -5.5 42.5625 C-2.80017384 43.27438265 -2.80017384 43.27438265 0.0625 43.0625 C1.01253906 43.0521875 1.96257812 43.041875 2.94140625 43.03125 C5.51642678 42.73579375 5.51642678 42.73579375 7.40234375 41.28125 C8.74629287 39.58858792 8.74629287 39.58858792 8.1875 37.375 C7.960625 36.776875 7.73375 36.17875 7.5 35.5625 C6.73816406 35.45292969 5.97632813 35.34335937 5.19140625 35.23046875 C-4.38727927 33.75958446 -13.3973525 32.11350994 -20.8125 25.5 C-23.27219922 21.21830135 -23.17010221 17.39185733 -22.5 12.5625 C-21 8.9375 -21 8.9375 -19.5 6.5625 C-18.84 6.5625 -18.18 6.5625 -17.5 6.5625 C-17.5 5.9025 -17.5 5.2425 -17.5 4.5625 C-11.43250649 1.06255822 -6.96742243 -0.09506114 0 0 Z " fill="#E5E5E1" transform="translate(324.5,224.4375)"/>
<path d="M0 0 C0.30071865 7.55137932 -0.57374434 14.58856436 -2 22 C-6.38968456 22 -7.76905739 19.87194899 -11 17 C-12.27846802 18.32559937 -12.27846802 18.32559937 -13.58276367 19.67797852 C-16.74505613 22.94876593 -19.92707999 26.19974092 -23.11547852 29.44506836 C-24.49335264 30.8531398 -25.86579693 32.26654582 -27.23266602 33.68530273 C-29.19709768 35.72241195 -31.18018319 37.73961206 -33.16796875 39.75390625 C-33.77650192 40.39340714 -34.3850351 41.03290802 -35.01200867 41.69178772 C-39.28958083 45.97270089 -39.28958083 45.97270089 -42.70019531 46.10375977 C-45.24769263 44.88112331 -46.72247345 43.66679598 -48.62890625 41.5859375 C-49.27150391 40.90789062 -49.91410156 40.22984375 -50.57617188 39.53125 C-51.90607793 38.08757617 -53.23418975 36.64224754 -54.56054688 35.1953125 C-55.20185547 34.51984375 -55.84316406 33.844375 -56.50390625 33.1484375 C-57.36737671 32.20750244 -57.36737671 32.20750244 -58.24829102 31.24755859 C-59.90419992 29.77170694 -59.90419992 29.77170694 -61.901474 30.23034668 C-64.36019531 31.13210488 -65.51772597 32.184603 -67.328125 34.06689453 C-67.95557617 34.71071075 -68.58302734 35.35452698 -69.22949219 36.01785278 C-69.89625977 36.71578949 -70.56302734 37.4137262 -71.25 38.1328125 C-72.67682966 39.59269589 -74.10392092 41.05232364 -75.53125 42.51171875 C-77.77405355 44.82300861 -80.01265866 47.13815125 -82.24609375 49.45849609 C-84.40336805 51.69396684 -86.57559455 53.9140205 -88.75 56.1328125 C-89.41676758 56.83479767 -90.08353516 57.53678284 -90.77050781 58.26004028 C-91.71168457 59.21630814 -91.71168457 59.21630814 -92.671875 60.19189453 C-93.2194043 60.7595755 -93.76693359 61.32725647 -94.33105469 61.91213989 C-96 63 -96 63 -98.09863281 62.77316284 C-100.28883066 61.88255129 -101.45966162 60.77138914 -103 59 C-102.34 57.35 -101.68 55.7 -101 54 C-100.34 54 -99.68 54 -99 54 C-98.76732422 53.44280273 -98.53464844 52.88560547 -98.29492188 52.31152344 C-96.66430607 49.40076355 -94.63760806 47.37818867 -92.28125 45.015625 C-91.34925781 44.08105469 -90.41726562 43.14648438 -89.45703125 42.18359375 C-88.7292749 41.46212158 -88.7292749 41.46212158 -87.98681641 40.72607422 C-86.49793661 39.24795152 -85.02008349 37.75940089 -83.54296875 36.26953125 C-82.61097656 35.34011719 -81.67898437 34.41070312 -80.71875 33.453125 C-79.86216797 32.59879883 -79.00558594 31.74447266 -78.12304688 30.86425781 C-76 29 -76 29 -74 29 C-74 28.34 -74 27.68 -74 27 C-73.34 27 -72.68 27 -72 27 C-71.79375 26.46375 -71.5875 25.9275 -71.375 25.375 C-69.47698934 22.09661795 -67.15683617 19.1378123 -64 17 C-60.94813053 16.62363004 -59.52855628 16.60650977 -57.02709961 18.46875 C-56.09909546 19.47421875 -56.09909546 19.47421875 -55.15234375 20.5 C-54.46462891 21.221875 -53.77691406 21.94375 -53.06835938 22.6875 C-52.36517578 23.450625 -51.66199219 24.21375 -50.9375 25 C-49.53948253 26.50889033 -48.13229309 28.00934905 -46.71484375 29.5 C-46.09730225 30.1703125 -45.47976074 30.840625 -44.84350586 31.53125 C-42.87143011 33.41541832 -42.87143011 33.41541832 -39 33 C-39 32.34 -39 31.68 -39 31 C-38.34 31 -37.68 31 -37 31 C-37 30.34 -37 29.68 -37 29 C-36.34 29 -35.68 29 -35 29 C-35 28.34 -35 27.68 -35 27 C-34.34 27 -33.68 27 -33 27 C-33 26.34 -33 25.68 -33 25 C-32.34 25 -31.68 25 -31 25 C-31 24.34 -31 23.68 -31 23 C-30.34 23 -29.68 23 -29 23 C-29 22.34 -29 21.68 -29 21 C-28.34 21 -27.68 21 -27 21 C-27 20.34 -27 19.68 -27 19 C-26.34 19 -25.68 19 -25 19 C-25 18.34 -25 17.68 -25 17 C-24.34 17 -23.68 17 -23 17 C-23 16.34 -23 15.68 -23 15 C-22.34 15 -21.68 15 -21 15 C-20.34 13.68 -19.68 12.36 -19 11 C-18.34 11 -17.68 11 -17 11 C-17.433125 10.51789063 -17.86625 10.03578125 -18.3125 9.5390625 C-18.869375 8.90742188 -19.42625 8.27578125 -20 7.625 C-20.556875 6.99851563 -21.11375 6.37203125 -21.6875 5.7265625 C-23 4 -23 4 -23 2 C-15.2472493 0.48462814 -7.89957062 -0.27990605 0 0 Z " fill="#E4B22D" transform="translate(145,187)"/>
<path d="M0 0 C2.35701122 1.12856893 3.66756422 2.41419022 5.41992188 4.35205078 C6.05671875 5.03009766 6.69351563 5.70814453 7.34960938 6.40673828 C8.67285745 7.8445984 9.98799922 9.28996096 11.29492188 10.74267578 C11.93429688 11.41814453 12.57367188 12.09361328 13.23242188 12.78955078 C13.80395996 13.41684082 14.37549805 14.04413086 14.96435547 14.69042969 C17.43172965 16.54004369 17.43172965 16.54004369 22.95898438 14.93798828 C22.29898438 18.89798828 21.63898438 22.85798828 20.95898438 26.93798828 C20.62898438 26.93798828 20.29898438 26.93798828 19.95898438 26.93798828 C19.62898438 25.28798828 19.29898438 23.63798828 18.95898438 21.93798828 C17.30898437 21.93798828 15.65898438 21.93798828 13.95898438 21.93798828 C13.62898438 23.25798828 13.29898438 24.57798828 12.95898438 25.93798828 C12.35570312 26.02435547 11.75242188 26.11072266 11.13085938 26.19970703 C10.33164063 26.34021484 9.53242187 26.48072266 8.70898438 26.62548828 C7.92007813 26.75310547 7.13117188 26.88072266 6.31835938 27.01220703 C2.83496702 28.37903483 1.79482409 29.64585324 -0.04101562 32.93798828 C-0.58683692 36.66577599 -0.60108645 40.36268942 -0.60351562 44.12548828 C-0.61242127 46.11908086 -0.6339227 48.11266961 -0.66992188 50.10595703 C-0.67100952 51.42503052 -0.67100952 51.42503052 -0.67211914 52.77075195 C-0.79385498 53.48593994 -0.91559082 54.20112793 -1.04101562 54.93798828 C-4.04101562 56.93798828 -4.04101562 56.93798828 -7.04101562 56.93798828 C-7.04101562 58.91798828 -7.04101562 60.89798828 -7.04101562 62.93798828 C-8.70713468 62.98070928 -10.37484447 62.9786266 -12.04101562 62.93798828 C-13.04101562 61.93798828 -13.04101562 61.93798828 -13.10351562 58.37548828 C-13.08289063 57.24111328 -13.06226562 56.10673828 -13.04101562 54.93798828 C-13.98976563 54.95861328 -14.93851563 54.97923828 -15.91601562 55.00048828 C-19.04101562 54.93798828 -19.04101562 54.93798828 -21.04101562 53.93798828 C-21.0700373 49.5213354 -21.0878217 45.10470705 -21.10351562 40.68798828 C-21.11189453 39.43373047 -21.12027344 38.17947266 -21.12890625 36.88720703 C-21.13212891 35.68193359 -21.13535156 34.47666016 -21.13867188 33.23486328 C-21.14390869 32.1246582 -21.14914551 31.01445312 -21.15454102 29.87060547 C-21.05760056 27.36641449 -20.77331838 25.31987268 -20.04101562 22.93798828 C-22.02101563 23.59798828 -24.00101563 24.25798828 -26.04101562 24.93798828 C-21.23796533 19.19286059 -16.16307098 13.77919961 -10.91601562 8.43798828 C-10.11808594 7.60267578 -9.32015625 6.76736328 -8.49804688 5.90673828 C-7.72589844 5.12298828 -6.95375 4.33923828 -6.15820312 3.53173828 C-5.11575439 2.45956055 -5.11575439 2.45956055 -4.05224609 1.36572266 C-2.04101562 -0.06201172 -2.04101562 -0.06201172 0 0 Z " fill="#0A223A" transform="translate(84.041015625,216.06201171875)"/>
<path d="M0 0 C4.62 0 9.24 0 14 0 C14 4.62 14 9.24 14 14 C15.629375 13.979375 17.25875 13.95875 18.9375 13.9375 C20.62499341 13.91613932 22.31391034 13.92794489 24 14 C25 15 25 15 25.09765625 17.28515625 C25.06510417 19.85677083 25.03255208 22.42838542 25 25 C21.37 25.33 17.74 25.66 14 26 C14.16371094 26.92941406 14.32742188 27.85882813 14.49609375 28.81640625 C15.21479176 33.84729229 15.10756313 38.86616509 15.0625 43.9375 C15.05798828 44.90751953 15.05347656 45.87753906 15.04882812 46.87695312 C15.0371315 49.2513676 15.02074086 51.62565021 15 54 C15.95712891 54.09087891 15.95712891 54.09087891 16.93359375 54.18359375 C17.75988281 54.26738281 18.58617187 54.35117187 19.4375 54.4375 C20.26121094 54.51871094 21.08492188 54.59992188 21.93359375 54.68359375 C24 55 24 55 25 56 C25.07205511 57.68608966 25.08386068 59.37500659 25.0625 61.0625 C25.05347656 61.98160156 25.04445313 62.90070313 25.03515625 63.84765625 C25.02355469 64.55792969 25.01195312 65.26820313 25 66 C19.96056253 68.51971873 11.95185931 67.80593527 6.625 66.3515625 C2.74446392 64.39456801 1.16650891 61.86843524 -0.41104126 57.93551636 C-1.36967785 54.78511436 -1.33375482 51.81163715 -1.29296875 48.53515625 C-1.28872391 47.85698349 -1.28447906 47.17881073 -1.28010559 46.48008728 C-1.26347941 44.34046598 -1.22586174 42.20183053 -1.1875 40.0625 C-1.17243222 38.60092518 -1.1587475 37.13933542 -1.14648438 35.67773438 C-1.11362977 32.11817603 -1.06196241 28.55918444 -1 25 C-3.31 25 -5.62 25 -8 25 C-8 21.37 -8 17.74 -8 14 C-6.02 13.67 -4.04 13.34 -2 13 C-1.20439236 10.08500057 -0.74677501 7.25438581 -0.4375 4.25 C-0.293125 2.8475 -0.14875 1.445 0 0 Z " fill="#E8E9E5" transform="translate(358,212)"/>
<path d="M0 0 C1.39456452 0.00667256 2.78911118 0.01863093 4.18359375 0.03515625 C4.89451172 0.03966797 5.60542969 0.04417969 6.33789062 0.04882812 C8.09899388 0.06064761 9.86005411 0.07858362 11.62109375 0.09765625 C11.64421941 9.07686402 11.66200998 18.05606162 11.67290592 27.03529263 C11.67813426 31.20428453 11.68523101 35.37325612 11.6965332 39.54223633 C11.70736383 43.56223311 11.71337096 47.5822103 11.71597099 51.60222054 C11.71782493 53.139286 11.72144494 54.67635034 11.72682381 56.21340752 C11.73403659 58.35901112 11.73508459 60.5045328 11.73461914 62.65014648 C11.73683975 63.87370346 11.73906036 65.09726044 11.74134827 66.3578949 C11.62109375 69.09765625 11.62109375 69.09765625 10.62109375 70.09765625 C8.2894932 70.19674927 5.95479433 70.22736129 3.62109375 70.22265625 C2.34234375 70.22523438 1.06359375 70.2278125 -0.25390625 70.23046875 C-3.37890625 70.09765625 -3.37890625 70.09765625 -4.37890625 69.09765625 C-4.47838818 66.98627724 -4.50690263 64.87153339 -4.50830078 62.7578125 C-4.51092926 61.7651387 -4.51092926 61.7651387 -4.51361084 60.75241089 C-4.51802842 58.55496635 -4.51509172 56.35760167 -4.51171875 54.16015625 C-4.51239182 52.63940414 -4.51336186 51.11865213 -4.51461792 49.59790039 C-4.51609476 46.40672789 -4.51394077 43.21558333 -4.50927734 40.02441406 C-4.50358005 35.92501095 -4.50685913 31.82567329 -4.51284981 27.72627258 C-4.51645579 24.58483381 -4.51531667 21.44341067 -4.51272202 18.30197144 C-4.51205285 16.79002881 -4.51288082 15.27808479 -4.51520157 13.7661438 C-4.5177287 11.65655738 -4.51388669 9.54707838 -4.50830078 7.4375 C-4.50750519 6.23472412 -4.50670959 5.03194824 -4.50588989 3.79272461 C-4.31734468 -0.20891082 -4.11162414 0.11883307 0 0 Z " fill="#DADAD6" transform="translate(283.37890625,208.90234375)"/>
<path d="M0 0 C4.95 0 9.9 0 15 0 C15 23.1 15 46.2 15 70 C10.38 70 5.76 70 1 70 C0 69 0 69 -0.12025452 66.26023865 C-0.11803391 65.03668167 -0.11581329 63.81312469 -0.11352539 62.55249023 C-0.11367142 61.87934784 -0.11381744 61.20620544 -0.1139679 60.51266479 C-0.11326878 58.27794216 -0.10547652 56.0433019 -0.09765625 53.80859375 C-0.09579206 52.26302638 -0.09436816 50.71745843 -0.09336853 49.17189026 C-0.0895434 45.09642923 -0.07971317 41.02100363 -0.06866455 36.94555664 C-0.05845032 32.78988118 -0.05387089 28.63420001 -0.04882812 24.47851562 C-0.03809089 16.31899232 -0.02049414 8.15950464 0 0 Z " fill="#E9E9E6" transform="translate(256,209)"/>
<path d="M0 0 C0.02685938 2.14576637 0.04633088 4.29162645 0.0625 6.4375 C0.07410156 7.63246094 0.08570313 8.82742187 0.09765625 10.05859375 C0 13 0 13 -1 14 C-3.18019479 14.39666227 -5.3696463 14.74315237 -7.5625 15.0625 C-8.76003906 15.23910156 -9.95757812 15.41570312 -11.19140625 15.59765625 C-12.11824219 15.73042969 -13.04507812 15.86320313 -14 16 C-15.75318856 20.5642526 -16.28198047 24.45426499 -16.37890625 29.33203125 C-16.39590073 30.00924728 -16.4128952 30.68646332 -16.43040466 31.38420105 C-16.48313128 33.52687509 -16.52368599 35.66953243 -16.5625 37.8125 C-16.60643972 39.97322997 -16.65304546 42.13381216 -16.70530701 44.2943573 C-16.75174542 46.2414317 -16.7892977 48.18871196 -16.82641602 50.13598633 C-17 53 -17 53 -18 54 C-20.35313555 54.07271741 -22.70833668 54.08370868 -25.0625 54.0625 C-26.35285156 54.05347656 -27.64320313 54.04445313 -28.97265625 54.03515625 C-29.97167969 54.02355469 -30.97070312 54.01195312 -32 54 C-32.19326436 46.77374796 -32.37075091 39.54723373 -32.53710938 32.3203125 C-32.5956201 29.86026169 -32.65778431 27.40029502 -32.72363281 24.94042969 C-32.81748648 21.4109631 -32.89833002 17.8814055 -32.9765625 14.3515625 C-33.00875885 13.24632233 -33.0409552 12.14108215 -33.0741272 11.00234985 C-33.09429901 9.98144257 -33.11447083 8.96053528 -33.13525391 7.90869141 C-33.15746002 7.00712311 -33.17966614 6.10555481 -33.20254517 5.17666626 C-33 3 -33 3 -31 1 C-28.1796875 0.8046875 -28.1796875 0.8046875 -24.875 0.875 C-23.77929688 0.89304688 -22.68359375 0.91109375 -21.5546875 0.9296875 C-20.71164062 0.95289063 -19.86859375 0.97609375 -19 1 C-18.34 2.32 -17.68 3.64 -17 5 C-15.576875 3.7625 -15.576875 3.7625 -14.125 2.5 C-9.61058882 -0.79079255 -5.38543155 -0.48761453 0 0 Z " fill="#F4F5F0" transform="translate(475,225)"/>
<path d="M0 0 C1.65 0 3.3 0 5 0 C5 18.15 5 36.3 5 55 C3.02 55 1.04 55 -1 55 C-1 56.98 -1 58.96 -1 61 C-2.98 61.495 -2.98 61.495 -5 62 C-5 59.69 -5 57.38 -5 55 C-5.969375 55.020625 -6.93875 55.04125 -7.9375 55.0625 C-11 55 -11 55 -12 54 C-12.12606495 51.02868734 -12.18870342 48.08192828 -12.203125 45.109375 C-12.20882507 44.21261047 -12.21452515 43.31584595 -12.22039795 42.39190674 C-12.2298652 40.48865952 -12.23638874 38.58539578 -12.24023438 36.68212891 C-12.24991316 33.77607315 -12.28090889 30.8707325 -12.3125 27.96484375 C-12.31903249 26.11719171 -12.32428199 24.26953459 -12.328125 22.421875 C-12.3404718 21.55399353 -12.3528186 20.68611206 -12.36553955 19.79193115 C-12.34798761 15.01226686 -12.07390869 11.89779477 -9 8 C-6.9921875 6.015625 -6.9921875 6.015625 -4.875 4.25 C-4.17117187 3.65703125 -3.46734375 3.0640625 -2.7421875 2.453125 C-2.16726562 1.97359375 -1.59234375 1.4940625 -1 1 C-0.67 0.67 -0.34 0.34 0 0 Z " fill="#03A749" transform="translate(133,216)"/>
<path d="M0 0 C-0.99 0.66 -1.98 1.32 -3 2 C-3.33343551 4.54207971 -3.33343551 4.54207971 -3 7 C-1.99163938 8.23267348 -1.99163938 8.23267348 0.06640625 8.09765625 C0.89011719 8.08605469 1.71382813 8.07445312 2.5625 8.0625 C3.38878906 8.05347656 4.21507812 8.04445312 5.06640625 8.03515625 C5.70449219 8.02355469 6.34257812 8.01195312 7 8 C7 10.31 7 12.62 7 15 C6.67 15 6.34 15 6 15 C6 13.35 6 11.7 6 10 C5.26394531 10.144375 4.52789062 10.28875 3.76953125 10.4375 C2.79371094 10.623125 1.81789063 10.80875 0.8125 11 C-0.63189453 11.2784375 -0.63189453 11.2784375 -2.10546875 11.5625 C-4.7934206 11.96877612 -7.28771019 12.07933572 -10 12 C-10.020625 13.299375 -10.04125 14.59875 -10.0625 15.9375 C-10.07410156 16.66839844 -10.08570313 17.39929688 -10.09765625 18.15234375 C-10.20561184 20.01732141 -10.20561184 20.01732141 -9 21 C-7.37860563 21.12494616 -5.75115878 21.17571624 -4.125 21.1875 C-2.79855469 21.20876953 -2.79855469 21.20876953 -1.4453125 21.23046875 C1.25766726 21.17068424 1.25766726 21.17068424 4 19 C4.144375 19.598125 4.28875 20.19625 4.4375 20.8125 C4.8872439 22.56150404 5.42892341 24.28677023 6 26 C6.66 26.33 7.32 26.66 8 27 C8 28.65 8 30.3 8 32 C11.96 32 15.92 32 20 32 C20 32.33 20 32.66 20 33 C17.87527424 33.05386629 15.75016348 33.09273071 13.625 33.125 C11.84996094 33.15980469 11.84996094 33.15980469 10.0390625 33.1953125 C7 33 7 33 5 31 C4.10861328 31.34224609 4.10861328 31.34224609 3.19921875 31.69140625 C-4.10997017 34.22631936 -10.68572248 34.82063211 -18.109375 32.27734375 C-21.89605728 30.40827621 -24.46006746 27.84255901 -26.33984375 24.05859375 C-28.09516727 18.5848926 -27.82942598 13.68957143 -25.3125 8.5625 C-18.84941622 1.40070446 -9.32874644 -0.51826369 0 0 Z " fill="#DFDFDC" transform="translate(413,246)"/>
<path d="M0 0 C0.74166633 0.00054477 1.48333265 0.00108953 2.24747372 0.00165081 C3.09860744 -0.00254368 3.94974117 -0.00673817 4.82666683 -0.01105976 C5.76232983 -0.00544025 6.69799282 0.00017925 7.66200924 0.00596905 C8.64580563 0.0040707 9.62960201 0.00217236 10.64321041 0.00021648 C13.90663691 -0.00349901 17.16984263 0.00722323 20.43324947 0.01842022 C22.69244008 0.0196116 24.9516312 0.02006527 27.21082211 0.01980877 C31.94962818 0.02137493 36.68835885 0.02967528 41.42714596 0.04307842 C47.5162986 0.06007813 53.60536834 0.06389257 59.69454193 0.06313324 C64.36035619 0.06340451 69.02615215 0.06887869 73.69196033 0.07613468 C75.93795731 0.07932761 78.18395636 0.0812902 80.42995548 0.08202839 C83.56203055 0.08418482 86.69401581 0.0929136 89.82607174 0.1036253 C90.76375896 0.10317211 91.70144619 0.10271893 92.66754818 0.10225201 C99.06486944 0.13441519 99.06486944 0.13441519 100.17934322 1.24888897 C100.17934322 2.89888897 100.17934322 4.54888897 100.17934322 6.24888897 C66.18934322 6.24888897 32.19934322 6.24888897 -2.82065678 6.24888897 C-3.15065678 4.92888897 -3.48065678 3.60888897 -3.82065678 2.24888897 C-1.82065678 0.24888897 -1.82065678 0.24888897 0 0 Z " fill="#C0A248" transform="translate(44.82065677642822,287.7511110305786)"/>
<path d="M0 0 C0.99 0 1.98 0 3 0 C3 2.31 3 4.62 3 7 C3.804375 6.979375 4.60875 6.95875 5.4375 6.9375 C8 7 8 7 9 8 C9.08767112 10.07262076 9.10695873 12.14820294 9.09765625 14.22265625 C9.09443359 15.48271484 9.09121094 16.74277344 9.08789062 18.04101562 C9.07953403 19.38151109 9.07106907 20.72200588 9.0625 22.0625 C9.0574866 23.40689942 9.05292342 24.7513006 9.04882812 26.09570312 C9.03699488 29.39717941 9.02050971 32.69856803 9 36 C7.02 36 5.04 36 3 36 C3 38.31 3 40.62 3 43 C1.68 43 0.36 43 -1 43 C-1 40.69 -1 38.38 -1 36 C-1.969375 36.020625 -2.93875 36.04125 -3.9375 36.0625 C-7 36 -7 36 -8 35 C-8.25342236 30.69352364 -8.18522638 26.37554946 -8.1875 22.0625 C-8.20586914 20.23428711 -8.20586914 20.23428711 -8.22460938 18.36914062 C-8.22654297 17.20705078 -8.22847656 16.04496094 -8.23046875 14.84765625 C-8.23457764 13.77523682 -8.23868652 12.70281738 -8.24291992 11.59790039 C-8 9 -8 9 -6 7 C-3.375 6.875 -3.375 6.875 -1 7 C-1.020625 6.030625 -1.04125 5.06125 -1.0625 4.0625 C-1 1 -1 1 0 0 Z " fill="#F33230" transform="translate(72,235)"/>
<path d="M0 0 C0.99 0.33 1.98 0.66 3 1 C3 2.65 3 4.3 3 6 C4.98 6 6.96 6 9 6 C10.3241409 8.64828179 10.12957042 10.66680112 10.1328125 13.62890625 C10.13474609 15.30436523 10.13474609 15.30436523 10.13671875 17.01367188 C10.13285156 18.18478516 10.12898438 19.35589844 10.125 20.5625 C10.13080078 22.3249707 10.13080078 22.3249707 10.13671875 24.12304688 C10.13542969 25.23873047 10.13414063 26.35441406 10.1328125 27.50390625 C10.13168457 28.53330322 10.13055664 29.5627002 10.12939453 30.62329102 C10 33 10 33 9 34 C7.00041636 34.04080783 4.99954746 34.04254356 3 34 C3 35.65 3 37.3 3 39 C1.68 39 0.36 39 -1 39 C-1 37.35 -1 35.7 -1 34 C-1.969375 34.020625 -2.93875 34.04125 -3.9375 34.0625 C-7 34 -7 34 -8 33 C-8.25301239 28.86037717 -8.18522549 24.70894004 -8.1875 20.5625 C-8.19974609 19.39138672 -8.21199219 18.22027344 -8.22460938 17.01367188 C-8.22654297 15.89669922 -8.22847656 14.77972656 -8.23046875 13.62890625 C-8.23457764 12.59838135 -8.23868652 11.56785645 -8.24291992 10.50610352 C-8 8 -8 8 -6 6 C-3.375 5.875 -3.375 5.875 -1 6 C-1.020625 5.195625 -1.04125 4.39125 -1.0625 3.5625 C-1 1 -1 1 0 0 Z " fill="#04A749" transform="translate(101,237)"/>
<path d="M0 0 C0 0.33 0 0.66 0 1 C-1.65 1.33 -3.3 1.66 -5 2 C-4.01 2.66 -3.02 3.32 -2 4 C-0.58312881 8.25061356 -1.80679961 10.71851625 -3 15 C-3.33 14.34 -3.66 13.68 -4 13 C-8.22546191 11.838871 -11.88795163 11.52678793 -15.9375 13.25 C-18.2081442 15.01368491 -18.2081442 15.01368491 -20 18 C-23.2578125 18.29296875 -23.2578125 18.29296875 -27.125 18.1875 C-28.40632813 18.16042969 -29.68765625 18.13335937 -31.0078125 18.10546875 C-31.99523437 18.07066406 -32.98265625 18.03585938 -34 18 C-33.79077357 12.03704684 -32.82230438 8.81710411 -28.67578125 4.47265625 C-20.89598592 -2.36413358 -9.60873896 -1.97102338 0 0 Z " fill="#E6E6E3" transform="translate(422,225)"/>
<path d="M0 0 C0.02685938 2.14576637 0.04633088 4.29162645 0.0625 6.4375 C0.07410156 7.63246094 0.08570313 8.82742187 0.09765625 10.05859375 C0 13 0 13 -1 14 C-4.35680989 14.53690911 -7.72245328 14.96627385 -11.09375 15.40234375 C-12.0528125 15.59957031 -13.011875 15.79679688 -14 16 C-14.33 16.66 -14.66 17.32 -15 18 C-15.33 16.68 -15.66 15.36 -16 14 C-14.35 13.67 -12.7 13.34 -11 13 C-11.99 11.35 -12.98 9.7 -14 8 C-14.61875 8.495 -15.2375 8.99 -15.875 9.5 C-18 11 -18 11 -20 11 C-20 8.36 -20 5.72 -20 3 C-23.63 3.33 -27.26 3.66 -31 4 C-31 20.17 -31 36.34 -31 53 C-26.71 53 -22.42 53 -18 53 C-18 53.33 -18 53.66 -18 54 C-22.62 54 -27.24 54 -32 54 C-32.19198293 46.77370197 -32.37075063 39.54724593 -32.53710938 32.3203125 C-32.5956201 29.86026169 -32.65778431 27.40029502 -32.72363281 24.94042969 C-32.81748648 21.4109631 -32.89833002 17.8814055 -32.9765625 14.3515625 C-33.00875885 13.24632233 -33.0409552 12.14108215 -33.0741272 11.00234985 C-33.09429901 9.98144257 -33.11447083 8.96053528 -33.13525391 7.90869141 C-33.15746002 7.00712311 -33.17966614 6.10555481 -33.20254517 5.17666626 C-33 3 -33 3 -31 1 C-28.1796875 0.8046875 -28.1796875 0.8046875 -24.875 0.875 C-23.77929688 0.89304688 -22.68359375 0.91109375 -21.5546875 0.9296875 C-20.71164062 0.95289063 -19.86859375 0.97609375 -19 1 C-18.34 2.32 -17.68 3.64 -17 5 C-15.576875 3.7625 -15.576875 3.7625 -14.125 2.5 C-9.61058882 -0.79079255 -5.38543155 -0.48761453 0 0 Z " fill="#DCDCDB" transform="translate(475,225)"/>
<path d="M0 0 C1.32 1.32 2.64 2.64 4 4 C3.34 4 2.68 4 2 4 C2 4.66 2 5.32 2 6 C0.68 6 -0.64 6 -2 6 C-2 7.65 -2 9.3 -2 11 C-0.02 10.67 1.96 10.34 4 10 C4 10.99 4 11.98 4 13 C3.195625 13.165 2.39125 13.33 1.5625 13.5 C-3.48590993 15.62564629 -7.26037575 19.02418895 -11 23 C-11.91035504 25.73106511 -12.12215713 27.29893239 -12.11352539 30.10424805 C-12.11344986 30.92487228 -12.11337433 31.74549652 -12.11329651 32.59098816 C-12.10813522 33.47232925 -12.10297394 34.35367035 -12.09765625 35.26171875 C-12.09553383 36.62040825 -12.09553383 36.62040825 -12.09336853 38.00654602 C-12.08777001 40.90023091 -12.07521781 43.79383849 -12.0625 46.6875 C-12.05748481 48.64908742 -12.05292193 50.61067606 -12.04882812 52.57226562 C-12.03780107 57.38154021 -12.02053747 62.190757 -12 67 C-10.35 67.33 -8.7 67.66 -7 68 C-7 68.66 -7 69.32 -7 70 C-8.98 70 -10.96 70 -13 70 C-14.58489888 67.1883583 -15.24960862 65.17625993 -15.24291992 61.95336914 C-15.24599655 61.16897964 -15.24907318 60.38459015 -15.25224304 59.57643127 C-15.24505753 58.73781052 -15.23787201 57.89918976 -15.23046875 57.03515625 C-15.22978142 55.72967079 -15.22978142 55.72967079 -15.2290802 54.39781189 C-15.22606309 52.55954625 -15.21819297 50.72128305 -15.20581055 48.88305664 C-15.18758921 46.07624195 -15.18530077 43.26975822 -15.18554688 40.46289062 C-15.18062982 38.67447633 -15.17480069 36.88606426 -15.16796875 35.09765625 C-15.16685593 34.26105972 -15.1657431 33.4244632 -15.16459656 32.56251526 C-15.13232772 28.57918602 -14.98539484 24.88800925 -14 21 C-17.00795167 20.65490872 -17.00795167 20.65490872 -18.60546875 22.53125 C-19.12753906 23.1809375 -19.64960937 23.830625 -20.1875 24.5 C-20.71730469 25.1496875 -21.24710937 25.799375 -21.79296875 26.46875 C-22.19128906 26.9740625 -22.58960937 27.479375 -23 28 C-24.32 27.67 -25.64 27.34 -27 27 C-18.09 18.09 -9.18 9.18 0 0 Z " fill="#012F28" transform="translate(134,203)"/>
<path d="M0 0 C33 0 66 0 100 0 C100.495 1.485 100.495 1.485 101 3 C67.67 3 34.34 3 0 3 C0 2.01 0 1.02 0 0 Z " fill="#EEB620" transform="translate(43,290)"/>
<path d="M0 0 C1.65 0 3.3 0 5 0 C5 18.15 5 36.3 5 55 C3.02 55 1.04 55 -1 55 C-1 56.98 -1 58.96 -1 61 C-2.98 61.495 -2.98 61.495 -5 62 C-5 59.69 -5 57.38 -5 55 C-5.969375 55.020625 -6.93875 55.04125 -7.9375 55.0625 C-11 55 -11 55 -12 54 C-12.12606495 51.02868734 -12.18870342 48.08192828 -12.203125 45.109375 C-12.20882507 44.21261047 -12.21452515 43.31584595 -12.22039795 42.39190674 C-12.2298652 40.48865952 -12.23638874 38.58539578 -12.24023438 36.68212891 C-12.24991316 33.77607315 -12.28090889 30.8707325 -12.3125 27.96484375 C-12.31903249 26.11719171 -12.32428199 24.26953459 -12.328125 22.421875 C-12.3404718 21.55399353 -12.3528186 20.68611206 -12.36553955 19.79193115 C-12.34798761 15.01226686 -12.07390869 11.89779477 -9 8 C-6.9921875 6.015625 -6.9921875 6.015625 -4.875 4.25 C-4.17117187 3.65703125 -3.46734375 3.0640625 -2.7421875 2.453125 C-2.16726562 1.97359375 -1.59234375 1.4940625 -1 1 C-0.67 0.67 -0.34 0.34 0 0 Z M-2.5 4.25 C-3.325 5.1575 -4.15 6.065 -5 7 C-5.7425 7.721875 -6.485 8.44375 -7.25 9.1875 C-10.88582987 12.95318094 -10.127147 17.00496397 -10.09765625 21.9453125 C-10.0962413 22.8303244 -10.09482635 23.7153363 -10.09336853 24.62716675 C-10.0877614 27.45981191 -10.07520771 30.29237864 -10.0625 33.125 C-10.05748592 35.04296761 -10.05292285 36.96093646 -10.04882812 38.87890625 C-10.03778966 43.58596782 -10.02052025 48.2929706 -10 53 C-5.53871734 53.03179061 -1.35960943 53.03800224 3 52 C4.20887291 49.58225419 4.12059343 48.06668936 4.11352539 45.36669922 C4.11341209 43.92543167 4.11341209 43.92543167 4.11329651 42.45504761 C4.10813522 41.41542877 4.10297394 40.37580994 4.09765625 39.3046875 C4.0962413 38.24210724 4.09482635 37.17952698 4.09336853 36.08474731 C4.08775834 32.68146991 4.07520409 29.27825762 4.0625 25.875 C4.05748631 23.57161553 4.05292318 21.26823003 4.04882812 18.96484375 C4.0377856 13.30987351 4.02103752 7.65494141 4 2 C-0.06503824 1.55402351 -0.06503824 1.55402351 -2.5 4.25 Z " fill="#299D5E" transform="translate(133,216)"/>
<path d="M0 0 C1.32 0 2.64 0 4 0 C3.125 5.75 3.125 5.75 2 8 C-10.52633045 8.0231863 -23.05265578 8.04094717 -35.57900333 8.05181217 C-41.39569419 8.05702723 -47.21237034 8.0640999 -53.02905273 8.07543945 C-58.64410484 8.08631724 -64.25914281 8.09228722 -69.87420464 8.09487724 C-72.01476705 8.09672267 -74.1553287 8.1003263 -76.29588509 8.10573006 C-79.29761542 8.11300536 -82.29928763 8.1139882 -85.30102539 8.11352539 C-86.62380745 8.1189183 -86.62380745 8.1189183 -87.97331238 8.12442017 C-92.75696729 8.11645703 -97.28246439 7.80353997 -102 7 C-102 6.67 -102 6.34 -102 6 C-68.01 6 -34.02 6 1 6 C0.505 3.03 0.505 3.03 0 0 Z " fill="#252D1F" transform="translate(144,288)"/>
<path d="M0 0 C4.95 0 9.9 0 15 0 C17.14680135 4.29360269 17.12524159 5.64777742 16.625 10.25 C16.45871094 11.86648437 16.45871094 11.86648437 16.2890625 13.515625 C16.14597656 14.74539062 16.14597656 14.74539062 16 16 C12.20088882 15.28159908 8.65341173 14.27444595 5 13 C4.67 14.32 4.34 15.64 4 17 C0.04 17.495 0.04 17.495 -4 18 C-3.505 16.515 -3.505 16.515 -3 15 C-2.01 15 -1.02 15 0 15 C0 14.34 0 13.68 0 13 C1.65 12.34 3.3 11.68 5 11 C3.88449178 7.13862539 2.97526761 4.70478873 0 2 C0 1.34 0 0.68 0 0 Z " fill="#F8B212" transform="translate(125,190)"/>
<path d="M0 0 C13.43448705 -0.92157304 13.43448705 -0.92157304 19.4140625 3.58203125 C24.09128592 7.76388371 25.50508678 10.68985641 26 17 C12.91908189 17.79653764 12.91908189 17.79653764 9.1875 14.5625 C8.465625 13.716875 7.74375 12.87125 7 12 C4.00860567 11.27264042 1.07185593 11.07361746 -2 11 C-2 10.67 -2 10.34 -2 10 C3.28 10 8.56 10 14 10 C14.66 8.68 15.32 7.36 16 6 C15.34 6 14.68 6 14 6 C14 5.34 14 4.68 14 4 C13.34 4 12.68 4 12 4 C12 3.01 12 2.02 12 1 C8.04 1 4.08 1 0 1 C0 0.67 0 0.34 0 0 Z " fill="#E9E9E8" transform="translate(321,225)"/>
<path d="M0 0 C2.26921536 -0.13489391 4.5407067 -0.23193995 6.8125 -0.3125 C8.70935547 -0.39951172 8.70935547 -0.39951172 10.64453125 -0.48828125 C14 0 14 0 15.94921875 2.51953125 C16.29597656 3.33808594 16.64273437 4.15664063 17 5 C16.484375 5.763125 15.96875 6.52625 15.4375 7.3125 C14.963125 8.199375 14.48875 9.08625 14 10 C14.33 10.99 14.66 11.98 15 13 C14.34 13 13.68 13 13 13 C13 13.99 13 14.98 13 16 C4.05839416 12.67883212 4.05839416 12.67883212 1.1875 8.125 C0.02700024 5.07105327 -0.10313548 3.20262812 0 0 Z " fill="#DCDCD9" transform="translate(301,262)"/>
<path d="M0 0 C5.94 0.33 11.88 0.66 18 1 C18 1.99 18 2.98 18 4 C19.65 4.66 21.3 5.32 23 6 C22.01 7.65 21.02 9.3 20 11 C14.06 10.67 8.12 10.34 2 10 C2 9.34 2 8.68 2 8 C1.34 7.67 0.68 7.34 0 7 C0.33 6.34 0.66 5.68 1 5 C0.67 3.35 0.34 1.7 0 0 Z M19 6 C20 8 20 8 20 8 Z " fill="#F8F8F4" transform="translate(315,225)"/>
<path d="M0 0 C0.99 0 1.98 0 3 0 C3 2.31 3 4.62 3 7 C3.804375 6.979375 4.60875 6.95875 5.4375 6.9375 C8 7 8 7 9 8 C9.08767112 10.07262076 9.10695873 12.14820294 9.09765625 14.22265625 C9.09443359 15.48271484 9.09121094 16.74277344 9.08789062 18.04101562 C9.07953403 19.38151109 9.07106907 20.72200588 9.0625 22.0625 C9.0574866 23.40689942 9.05292342 24.7513006 9.04882812 26.09570312 C9.03699488 29.39717941 9.02050971 32.69856803 9 36 C7.02 36 5.04 36 3 36 C3 38.31 3 40.62 3 43 C1.68 43 0.36 43 -1 43 C-1 40.69 -1 38.38 -1 36 C-1.969375 36.020625 -2.93875 36.04125 -3.9375 36.0625 C-7 36 -7 36 -8 35 C-8.25342236 30.69352364 -8.18522638 26.37554946 -8.1875 22.0625 C-8.20586914 20.23428711 -8.20586914 20.23428711 -8.22460938 18.36914062 C-8.22654297 17.20705078 -8.22847656 16.04496094 -8.23046875 14.84765625 C-8.23457764 13.77523682 -8.23868652 12.70281738 -8.24291992 11.59790039 C-8 9 -8 9 -6 7 C-3.375 6.875 -3.375 6.875 -1 7 C-1.020625 6.030625 -1.04125 5.06125 -1.0625 4.0625 C-1 1 -1 1 0 0 Z M-6 9 C-6.0268245 13.14587582 -6.04675315 17.29158038 -6.0625 21.4375 C-6.07087891 22.62150391 -6.07925781 23.80550781 -6.08789062 25.02539062 C-6.09111328 26.15009766 -6.09433594 27.27480469 -6.09765625 28.43359375 C-6.10289307 29.47572021 -6.10812988 30.51784668 -6.11352539 31.59155273 C-6.27305556 33.95128747 -6.27305556 33.95128747 -5 35 C-0.71 35 3.58 35 8 35 C8 26.42 8 17.84 8 9 C3.38 9 -1.24 9 -6 9 Z " fill="#C44045" transform="translate(72,235)"/>
<path d="M0 0 C0.99 0.33 1.98 0.66 3 1 C3 2.65 3 4.3 3 6 C4.98 6 6.96 6 9 6 C10.3241409 8.64828179 10.12957042 10.66680112 10.1328125 13.62890625 C10.13474609 15.30436523 10.13474609 15.30436523 10.13671875 17.01367188 C10.13285156 18.18478516 10.12898438 19.35589844 10.125 20.5625 C10.13080078 22.3249707 10.13080078 22.3249707 10.13671875 24.12304688 C10.13542969 25.23873047 10.13414063 26.35441406 10.1328125 27.50390625 C10.13168457 28.53330322 10.13055664 29.5627002 10.12939453 30.62329102 C10 33 10 33 9 34 C7.00041636 34.04080783 4.99954746 34.04254356 3 34 C3 35.65 3 37.3 3 39 C1.68 39 0.36 39 -1 39 C-1 37.35 -1 35.7 -1 34 C-1.969375 34.020625 -2.93875 34.04125 -3.9375 34.0625 C-7 34 -7 34 -8 33 C-8.25301239 28.86037717 -8.18522549 24.70894004 -8.1875 20.5625 C-8.19974609 19.39138672 -8.21199219 18.22027344 -8.22460938 17.01367188 C-8.22654297 15.89669922 -8.22847656 14.77972656 -8.23046875 13.62890625 C-8.23457764 12.59838135 -8.23868652 11.56785645 -8.24291992 10.50610352 C-8 8 -8 8 -6 6 C-3.375 5.875 -3.375 5.875 -1 6 C-1 6.66 -1 7.32 -1 8 C-2.65 8 -4.3 8 -6 8 C-5.67 15.26 -5.34 22.52 -5 30 C-4.01 30.33 -3.02 30.66 -2 31 C-2 31.66 -2 32.32 -2 33 C-1.2265625 32.7525 -1.2265625 32.7525 -0.4375 32.5 C2 32 2 32 9 32 C8.505 20.615 8.505 20.615 8 9 C6.02 8.34 4.04 7.68 2 7 C1.125 4.875 1.125 4.875 1 3 C0.34 3.66 -0.32 4.32 -1 5 C-0.67 3.35 -0.34 1.7 0 0 Z " fill="#25975E" transform="translate(101,237)"/>
<path d="M0 0 C2 1 4 2 6 3 C9.73771834 3.7136724 9.73771834 3.7136724 13 4 C13.33 5.98 13.66 7.96 14 10 C14.66 10 15.32 10 16 10 C16.66 11.32 17.32 12.64 18 14 C20.31 14 22.62 14 25 14 C25 17 25 17 23 19.1875 C22.01 20.0846875 22.01 20.0846875 21 21 C21 20.34 21 19.68 21 19 C20.05125 18.773125 19.1025 18.54625 18.125 18.3125 C15 17 15 17 13.625 14.375 C13.41875 13.59125 13.2125 12.8075 13 12 C12.01 12 11.02 12 10 12 C9.67 9.69 9.34 7.38 9 5 C8.443125 5.165 7.88625 5.33 7.3125 5.5 C5 6 5 6 2.5625 5.6875 C-0.52011317 6.06342844 -0.85355155 6.66633001 -2.75 9 C-3.4925 9.99 -4.235 10.98 -5 12 C-5.33 12 -5.66 12 -6 12 C-6.33 9.69 -6.66 7.38 -7 5 C-6.01 4.67 -5.02 4.34 -4 4 C-3.67 3.01 -3.34 2.02 -3 1 C-2.01 0.67 -1.02 0.34 0 0 Z " fill="#F6B311" transform="translate(81,209)"/>
<path d="M0 0 C1.32 1.32 2.64 2.64 4 4 C3.34 4 2.68 4 2 4 C2 4.66 2 5.32 2 6 C0.68 6 -0.64 6 -2 6 C-2 7.65 -2 9.3 -2 11 C-0.02 10.67 1.96 10.34 4 10 C4 10.99 4 11.98 4 13 C3.13375 13.20625 2.2675 13.4125 1.375 13.625 C-2.36704804 15.14953809 -3.98275794 16.80971085 -6.5078125 19.85546875 C-7.00023438 20.23316406 -7.49265625 20.61085937 -8 21 C-10.1796875 20.67578125 -10.1796875 20.67578125 -12 20 C-12.90234375 16.93359375 -12.90234375 16.93359375 -13 13 C-11.26108572 10.25076682 -8.97730332 8.2197243 -6.5625 6.0625 C-5.93794922 5.47404297 -5.31339844 4.88558594 -4.66992188 4.27929688 C-3.13070623 2.83407913 -1.567562 1.41442161 0 0 Z " fill="#0C2338" transform="translate(134,203)"/>
<path d="M0 0 C0.94875 0.04125 1.8975 0.0825 2.875 0.125 C2.545 1.775 2.215 3.425 1.875 5.125 C0.885 5.125 -0.105 5.125 -1.125 5.125 C-1.2075 5.7025 -1.29 6.28 -1.375 6.875 C-2.350982 9.80294601 -3.76011223 11.17744537 -6.125 13.125 C-7.115 13.125 -8.105 13.125 -9.125 13.125 C-9.125 13.785 -9.125 14.445 -9.125 15.125 C-10.445 15.455 -11.765 15.785 -13.125 16.125 C-13.455 17.775 -13.785 19.425 -14.125 21.125 C-15.445 20.795 -16.765 20.465 -18.125 20.125 C-17.465 18.145 -16.805 16.165 -16.125 14.125 C-15.465 14.125 -14.805 14.125 -14.125 14.125 C-14.125 12.805 -14.125 11.485 -14.125 10.125 C-12.805 10.125 -11.485 10.125 -10.125 10.125 C-9.795 9.135 -9.465 8.145 -9.125 7.125 C-8.135 6.795 -7.145 6.465 -6.125 6.125 C-5.53429986 4.17896726 -5.53429986 4.17896726 -5.125 2.125 C-3.125 0.125 -3.125 0.125 0 0 Z " fill="#F5B413" transform="translate(63.125,226.875)"/>
<path d="M0 0 C1.32 0 2.64 0 4 0 C4 0.99 4 1.98 4 3 C3.34 3 2.68 3 2 3 C2 3.66 2 4.32 2 5 C1.34 5 0.68 5 0 5 C0 5.66 0 6.32 0 7 C-0.66 7 -1.32 7 -2 7 C-2 7.66 -2 8.32 -2 9 C-2.66 9 -3.32 9 -4 9 C-4 9.66 -4 10.32 -4 11 C-4.66 11 -5.32 11 -6 11 C-6 11.66 -6 12.32 -6 13 C-6.66 13 -7.32 13 -8 13 C-8 13.66 -8 14.32 -8 15 C-8.66 15 -9.32 15 -10 15 C-10 15.66 -10 16.32 -10 17 C-10.66 17 -11.32 17 -12 17 C-12 17.66 -12 18.32 -12 19 C-12.66 19 -13.32 19 -14 19 C-14 19.66 -14 20.32 -14 21 C-15.765625 21.71484375 -15.765625 21.71484375 -18 22 C-19.921875 20.56640625 -19.921875 20.56640625 -21.75 18.5625 C-22.36359375 17.90378906 -22.9771875 17.24507812 -23.609375 16.56640625 C-24.06828125 16.04949219 -24.5271875 15.53257812 -25 15 C-24.01 15 -23.02 15 -22 15 C-21.67 15.33 -21.34 15.66 -21 16 C-18.67182036 16.36760731 -16.3381615 16.70241581 -14 17 C-14 16.34 -14 15.68 -14 15 C-14.99 14.67 -15.98 14.34 -17 14 C-16.34 13.67 -15.68 13.34 -15 13 C-14.67 12.34 -14.34 11.68 -14 11 C-13.01 11 -12.02 11 -11 11 C-10.67 10.34 -10.34 9.68 -10 9 C-8.68 9 -7.36 9 -6 9 C-5.87625 8.38125 -5.7525 7.7625 -5.625 7.125 C-5 5 -5 5 -3 3 C-2.01 3 -1.02 3 0 3 C0 2.01 0 1.02 0 0 Z " fill="#182728" transform="translate(120,199)"/>
<path d="M0 0 C1.09054687 0.02320313 2.18109375 0.04640625 3.3046875 0.0703125 C4.40039062 0.08835938 5.49609375 0.10640625 6.625 0.125 C7.46804688 0.14820313 8.31109375 0.17140625 9.1796875 0.1953125 C9.8396875 1.5153125 10.4996875 2.8353125 11.1796875 4.1953125 C12.1696875 4.1953125 13.1596875 4.1953125 14.1796875 4.1953125 C13.7053125 4.6284375 13.2309375 5.0615625 12.7421875 5.5078125 C10.94281793 7.21840863 10.94281793 7.21840863 10.1796875 10.1953125 C9.5196875 10.1953125 8.8596875 10.1953125 8.1796875 10.1953125 C8.1796875 7.5553125 8.1796875 4.9153125 8.1796875 2.1953125 C4.5496875 2.5253125 0.9196875 2.8553125 -2.8203125 3.1953125 C-2.8203125 19.3653125 -2.8203125 35.5353125 -2.8203125 52.1953125 C1.4696875 52.1953125 5.7596875 52.1953125 10.1796875 52.1953125 C10.1796875 52.5253125 10.1796875 52.8553125 10.1796875 53.1953125 C5.5596875 53.1953125 0.9396875 53.1953125 -3.8203125 53.1953125 C-4.01229543 45.96901447 -4.19106313 38.74255843 -4.35742188 31.515625 C-4.4159326 29.05557419 -4.47809681 26.59560752 -4.54394531 24.13574219 C-4.63779898 20.6062756 -4.71864252 17.076718 -4.796875 13.546875 C-4.82907135 12.44163483 -4.8612677 11.33639465 -4.8944397 10.19766235 C-4.91461151 9.17675507 -4.93478333 8.15584778 -4.95556641 7.10400391 C-4.97777252 6.20243561 -4.99997864 5.30086731 -5.02285767 4.37197876 C-4.69227657 0.81936512 -3.43166056 0.23764962 0 0 Z " fill="#AAAAAB" transform="translate(446.8203125,225.8046875)"/>
<path d="M0 0 C34.32 0 68.64 0 104 0 C104 0.33 104 0.66 104 1 C54.005 1.495 54.005 1.495 3 2 C2.67 3.65 2.34 5.3 2 7 C1.01 6.67 0.02 6.34 -1 6 C-0.67 4.02 -0.34 2.04 0 0 Z " fill="#1C1F19" transform="translate(40,287)"/>
<path d="M0 0 C1.08410156 -0.00257813 2.16820312 -0.00515625 3.28515625 -0.0078125 C5.9375 0.125 5.9375 0.125 6.9375 1.125 C7.00994053 3.14464199 7.02127188 5.16667124 7 7.1875 C6.99097656 8.29222656 6.98195312 9.39695313 6.97265625 10.53515625 C6.96105469 11.38980469 6.94945312 12.24445313 6.9375 13.125 C6.2775 13.125 5.6175 13.125 4.9375 13.125 C4.96070313 13.88425781 4.98390625 14.64351562 5.0078125 15.42578125 C5.03488281 16.91658203 5.03488281 16.91658203 5.0625 18.4375 C5.08570313 19.42363281 5.10890625 20.40976563 5.1328125 21.42578125 C4.9375 24.125 4.9375 24.125 2.9375 27.125 C1.6175 26.795 0.2975 26.465 -1.0625 26.125 C-1.3925 24.805 -1.7225 23.485 -2.0625 22.125 C-0.7425 22.785 0.5775 23.445 1.9375 24.125 C2.9275 16.865 3.9175 9.605 4.9375 2.125 C-6.4475 3.115 -6.4475 3.115 -18.0625 4.125 C-17.7325 5.115 -17.4025 6.105 -17.0625 7.125 C-18.0525 7.62 -18.0525 7.62 -19.0625 8.125 C-19.105221 6.45888095 -19.10313832 4.79117115 -19.0625 3.125 C-17.41946827 1.48196827 -15.38242705 1.80637147 -13.125 1.625 C-8.4884649 1.25140868 -4.71090761 -0.01122982 0 0 Z " fill="#232A1D" transform="translate(140.0625,184.875)"/>
<path d="M0 0 C1.32 0.33 2.64 0.66 4 1 C-0.36344075 6.18749613 -4.88421121 11.15532939 -9.625 16 C-10.27984375 16.69222656 -10.9346875 17.38445312 -11.609375 18.09765625 C-12.56457031 19.07025391 -12.56457031 19.07025391 -13.5390625 20.0625 C-14.10834473 20.65160156 -14.67762695 21.24070313 -15.26416016 21.84765625 C-17 23 -17 23 -19.10693359 22.78125 C-21.28571484 21.88208828 -22.4640534 20.76633859 -24 19 C-23.34 17.35 -22.68 15.7 -22 14 C-21.34 14 -20.68 14 -20 14 C-19.34 12.68 -18.68 11.36 -18 10 C-17.67 11.32 -17.34 12.64 -17 14 C-17.66 14 -18.32 14 -19 14 C-19.33 15.98 -19.66 17.96 -20 20 C-19.01 20 -18.02 20 -17 20 C-16.67 18.68 -16.34 17.36 -16 16 C-14.68 15.67 -13.36 15.34 -12 15 C-12 14.34 -12 13.68 -12 13 C-10.8553125 12.3503125 -10.8553125 12.3503125 -9.6875 11.6875 C-6.65604482 9.78402814 -5.76262409 8.04453252 -4 5 C-3.01 4.67 -2.02 4.34 -1 4 C-0.26676204 1.98491642 -0.26676204 1.98491642 0 0 Z " fill="#E0B63D" transform="translate(66,227)"/>
<path d="M0 0 C1.65 0 3.3 0 5 0 C4.3047157 4.69316906 1.50227385 7.59787774 -1.875 10.75 C-4.54353593 12.31972702 -6.9467967 12.65304508 -10 13 C-10.33 11.68 -10.66 10.36 -11 9 C-10.34 9 -9.68 9 -9 9 C-9 8.34 -9 7.68 -9 7 C-7.75 5.375 -7.75 5.375 -6 4 C-4.68 4 -3.36 4 -2 4 C-2 3.34 -2 2.68 -2 2 C-1.34 2 -0.68 2 0 2 C0 1.34 0 0.68 0 0 Z " fill="#F6B413" transform="translate(118,210)"/>
<path d="M0 0 C2.79754733 1.2951608 4.12979715 3.41544291 5.8984375 5.87890625 C3.5553162 5.62329302 1.22000347 5.28619853 -1.1015625 4.87890625 C-1.4315625 4.21890625 -1.7615625 3.55890625 -2.1015625 2.87890625 C-2.2253125 3.43578125 -2.3490625 3.99265625 -2.4765625 4.56640625 C-4.29054873 11.27815531 -4.29054873 11.27815531 -6.7890625 13.12890625 C-9.85755125 14.12409179 -12.90348285 14.50989706 -16.1015625 14.87890625 C-12.82802475 10.95066095 -9.47950865 7.10488642 -5.9765625 3.37890625 C-5.33460937 2.68796875 -4.69265625 1.99703125 -4.03125 1.28515625 C-2.1015625 -0.12109375 -2.1015625 -0.12109375 0 0 Z " fill="#1C252C" transform="translate(84.1015625,216.12109375)"/>
<path d="M0 0 C0.66 0 1.32 0 2 0 C4.23595471 4.47190942 3.22993514 10.58912453 3.25 15.5 C3.270625 16.76199219 3.29125 18.02398437 3.3125 19.32421875 C3.31765625 20.52691406 3.3228125 21.72960937 3.328125 22.96875 C3.34214355 24.63067383 3.34214355 24.63067383 3.35644531 26.32617188 C3.23881836 27.20853516 3.12119141 28.09089844 3 29 C0 31 0 31 -3 31 C-3 32.98 -3 34.96 -3 37 C-4.65 37 -6.3 37 -8 37 C-6.515 36.505 -6.515 36.505 -5 36 C-5 33.69 -5 31.38 -5 29 C-3.02 29 -1.04 29 1 29 C0.67 19.43 0.34 9.86 0 0 Z " fill="#581D2C" transform="translate(80,242)"/>
<path d="M0 0 C0.66 1.32 1.32 2.64 2 4 C0.989375 3.690625 -0.02125 3.38125 -1.0625 3.0625 C-4.87347809 2.611751 -4.87347809 2.611751 -6.98828125 4.421875 C-9.355824 6.7943195 -11.49423761 8.98847523 -13 12 C-13.66 12 -14.32 12 -15 12 C-15 12.66 -15 13.32 -15 14 C-16.96147874 15.38938077 -18.96166576 16.7260411 -21 18 C-21 17.01 -21 16.02 -21 15 C-20.34 15 -19.68 15 -19 15 C-19.20625 14.401875 -19.4125 13.80375 -19.625 13.1875 C-20 11 -20 11 -18 8 C-17.38125 7.87625 -16.7625 7.7525 -16.125 7.625 C-13.7318449 7.14256138 -13.7318449 7.14256138 -12.0625 4.5625 C-8.66967331 0.34716987 -5.26112053 -0.30063546 0 0 Z " fill="#162627" transform="translate(86,202)"/>
<path d="M0 0 C0.66 0 1.32 0 2 0 C2 1.65 2 3.3 2 5 C0.02 5.66 -1.96 6.32 -4 7 C-4.33 15.25 -4.66 23.5 -5 32 C-5.66 32 -6.32 32 -7 32 C-7.19660714 27.89621612 -7.3807276 23.79196562 -7.5625 19.6875 C-7.61857422 18.52025391 -7.67464844 17.35300781 -7.73242188 16.15039062 C-7.78076172 15.03212891 -7.82910156 13.91386719 -7.87890625 12.76171875 C-7.9260376 11.73006592 -7.97316895 10.69841309 -8.02172852 9.63549805 C-8 7 -8 7 -7 4 C-5.02 3.67 -3.04 3.34 -1 3 C-0.67 2.01 -0.34 1.02 0 0 Z " fill="#022D2D" transform="translate(98,238)"/>
<path d="M0 0 C1.32 0.33 2.64 0.66 4 1 C-0.95 5.95 -5.9 10.9 -11 16 C-11 13 -11 13 -9.5625 11.5 C-9.046875 11.005 -8.53125 10.51 -8 10 C-7.67 9.01 -7.34 8.02 -7 7 C-7.99 7.33 -8.98 7.66 -10 8 C-10.66 7.67 -11.32 7.34 -12 7 C-12 7.66 -12 8.32 -12 9 C-12.66 9 -13.32 9 -14 9 C-14 9.66 -14 10.32 -14 11 C-15.32 11 -16.64 11 -18 11 C-18 10.34 -18 9.68 -18 9 C-17.34 9 -16.68 9 -16 9 C-16 8.34 -16 7.68 -16 7 C-15.34 7 -14.68 7 -14 7 C-14 6.34 -14 5.68 -14 5 C-12.58366664 4.83052421 -11.16691467 4.66454493 -9.75 4.5 C-8.56664063 4.36078125 -8.56664063 4.36078125 -7.359375 4.21875 C-5 4 -5 4 -1 4 C-0.67 2.68 -0.34 1.36 0 0 Z " fill="#E6B834" transform="translate(130,203)"/>
<path d="M0 0 C0.66 0.33 1.32 0.66 2 1 C1.70703125 3.05078125 1.4140625 5.1015625 1.12109375 7.15234375 C1.08113281 7.76207031 1.04117188 8.37179688 1 9 C1.33 9.33 1.66 9.66 2 10 C2.01674294 11.85583223 1.96275607 13.71239363 1.87890625 15.56640625 C1.83056641 16.69111328 1.78222656 17.81582031 1.73242188 18.97460938 C1.67634766 20.15861328 1.62027344 21.34261719 1.5625 22.5625 C1.51029297 23.75037109 1.45808594 24.93824219 1.40429688 26.16210938 C1.2741434 29.10831066 1.1391636 32.05421276 1 35 C0.67 35 0.34 35 0 35 C-0.33 26.42 -0.66 17.84 -1 9 C-2.65 9 -4.3 9 -6 9 C-6 7.35 -6 5.7 -6 4 C-5.01 3.67 -4.02 3.34 -3 3 C-1.33289654 1.50014391 -1.33289654 1.50014391 0 0 Z " fill="#042B31" transform="translate(111,234)"/>
<path d="M0 0 C1.2077558 3.62326739 0.54311128 4.64146369 -1 8 C0.32 8.66 1.64 9.32 3 10 C3.33 8.68 3.66 7.36 4 6 C4 7.65 4 9.3 4 11 C2.02 11.66 0.04 12.32 -2 13 C-2.33 21.58 -2.66 30.16 -3 39 C-3.33 39 -3.66 39 -4 39 C-4.02902168 34.58334712 -4.04680608 30.16671877 -4.0625 25.75 C-4.07087891 24.49574219 -4.07925781 23.24148437 -4.08789062 21.94921875 C-4.09111328 20.74394531 -4.09433594 19.53867188 -4.09765625 18.296875 C-4.10289307 17.18666992 -4.10812988 16.07646484 -4.11352539 14.93261719 C-4.01658493 12.42842621 -3.73230276 10.3818844 -3 8 C-4.98 8.66 -6.96 9.32 -9 10 C-8.06409496 8.8944811 -7.12620142 7.79064547 -6.1875 6.6875 C-5.66542969 6.07261719 -5.14335938 5.45773438 -4.60546875 4.82421875 C-3.12827531 3.14575321 -1.59960869 1.56117966 0 0 Z " fill="#2D1025" transform="translate(67,231)"/>
<path d="M0 0 C0.67095703 0.63228516 0.67095703 0.63228516 1.35546875 1.27734375 C5.98399766 5.5377979 5.98399766 5.5377979 12 7 C12 6.34 12 5.68 12 5 C12.66 5 13.32 5 14 5 C14 4.34 14 3.68 14 3 C14.66 3 15.32 3 16 3 C16 2.34 16 1.68 16 1 C16.66 1 17.32 1 18 1 C17.67 1.99 17.34 2.98 17 4 C16.34 4 15.68 4 15 4 C15 4.66 15 5.32 15 6 C14.34 6 13.68 6 13 6 C12.67 7.32 12.34 8.64 12 10 C9.36 10.33 6.72 10.66 4 11 C3.67 9.35 3.34 7.7 3 6 C2.34 6 1.68 6 1 6 C0.67 4.02 0.34 2.04 0 0 Z " fill="#F2B21A" transform="translate(94,213)"/>
<path d="M0 0 C0.66 0 1.32 0 2 0 C2.33 8.25 2.66 16.5 3 25 C4.32 25.66 5.64 26.32 7 27 C5.00045254 27.04254356 2.99958364 27.04080783 1 27 C0 26 0 26 -0.11352539 23.49975586 C-0.10828857 22.41573486 -0.10305176 21.33171387 -0.09765625 20.21484375 C-0.09443359 19.04501953 -0.09121094 17.87519531 -0.08789062 16.66992188 C-0.07951172 15.43822266 -0.07113281 14.20652344 -0.0625 12.9375 C-0.05798828 11.70193359 -0.05347656 10.46636719 -0.04882812 9.19335938 C-0.03699608 6.12885883 -0.02051173 3.06445279 0 0 Z " fill="#B13A42" transform="translate(64,244)"/>
<path d="M0 0 C0.99 0.33 1.98 0.66 3 1 C3 2.65 3 4.3 3 6 C4.98 6 6.96 6 9 6 C10.3241409 8.64828179 10.12957042 10.66680112 10.1328125 13.62890625 C10.13474609 15.30436523 10.13474609 15.30436523 10.13671875 17.01367188 C10.13285156 18.18478516 10.12898438 19.35589844 10.125 20.5625 C10.12886719 21.73748047 10.13273437 22.91246094 10.13671875 24.12304688 C10.13542969 25.23873047 10.13414063 26.35441406 10.1328125 27.50390625 C10.13168457 28.53330322 10.13055664 29.5627002 10.12939453 30.62329102 C10 33 10 33 9 34 C7.00041636 34.04080783 4.99954746 34.04254356 3 34 C3 33.67 3 33.34 3 33 C5.475 32.505 5.475 32.505 8 32 C8 24.41 8 16.82 8 9 C6.02 8.34 4.04 7.68 2 7 C1.125 4.875 1.125 4.875 1 3 C0.34 3.66 -0.32 4.32 -1 5 C-0.67 3.35 -0.34 1.7 0 0 Z " fill="#2A895C" transform="translate(101,237)"/>
<path d="M0 0 C1.58323688 -0.027193 3.16661062 -0.04648306 4.75 -0.0625 C6.07257813 -0.07990234 6.07257813 -0.07990234 7.421875 -0.09765625 C9.7818838 -0.00826198 11.74498524 0.33087179 14 1 C14 1.99 14 2.98 14 4 C14.99 3.67 15.98 3.34 17 3 C17 3.66 17 4.32 17 5 C21.05085679 4.75368443 21.05085679 4.75368443 25 4 C26.5899433 2.07935207 26.5899433 2.07935207 27 0 C27.33 2.31 27.66 4.62 28 7 C14.91908189 7.79653764 14.91908189 7.79653764 11.1875 4.5625 C10.465625 3.716875 9.74375 2.87125 9 2 C6.00860567 1.27264042 3.07185593 1.07361746 0 1 C0 0.67 0 0.34 0 0 Z " fill="#959498" transform="translate(319,235)"/>
<path d="M0 0 C0.33 0.99 0.66 1.98 1 3 C0.38125 3.185625 -0.2375 3.37125 -0.875 3.5625 C-4.05602866 5.71437233 -4.19451947 8.37533763 -5 12 C-5.99 12 -6.98 12 -8 12 C-8 9.36 -8 6.72 -8 4 C-9.65 4 -11.3 4 -13 4 C-13 3.67 -13 3.34 -13 3 C-11.39796533 2.63631108 -9.79325797 2.28438048 -8.1875 1.9375 C-7.29417969 1.74027344 -6.40085938 1.54304688 -5.48046875 1.33984375 C-3 1 -3 1 0 2 C0 1.34 0 0.68 0 0 Z " fill="#0EA04E" transform="translate(136,266)"/>
<path d="M0 0 C1.32 1.32 2.64 2.64 4 4 C1.69 4.33 -0.62 4.66 -3 5 C-3.33 6.32 -3.66 7.64 -4 9 C-4.66 9 -5.32 9 -6 9 C-6 9.66 -6 10.32 -6 11 C-6.99 11 -7.98 11 -9 11 C-9.33 12.32 -9.66 13.64 -10 15 C-10.99 14.34 -11.98 13.68 -13 13 C-8.71 8.71 -4.42 4.42 0 0 Z " fill="#2A2C18" transform="translate(134,203)"/>
<path d="M0 0 C0.33 1.32 0.66 2.64 1 4 C0.175 4.5775 -0.65 5.155 -1.5 5.75 C-2.325 6.4925 -3.15 7.235 -4 8 C-4 9.32 -4 10.64 -4 12 C-6.70879335 13.35439668 -9.00933268 13.06501451 -12 13 C-11.34 12.01 -10.68 11.02 -10 10 C-9.34 10 -8.68 10 -8 10 C-8 9.34 -8 8.68 -8 8 C-7.34 8 -6.68 8 -6 8 C-5.7525 7.4225 -5.505 6.845 -5.25 6.25 C-3.83316683 3.6997003 -2.12372463 1.98214299 0 0 Z " fill="#E0AF30" transform="translate(79,206)"/>
<path d="M0 0 C1.98885403 2.98328104 2.42071796 4.49801286 3 7.9375 C3.57159068 11.32111271 4.32628705 13.99429049 6 17 C3.50258572 15.14605215 1.12914569 13.27358523 -1 11 C-1.375 8.25 -1.375 8.25 -1 6 C-1.33 5.34 -1.66 4.68 -2 4 C-1.0625 1.875 -1.0625 1.875 0 0 Z " fill="#10212D" transform="translate(89,196)"/>
<path d="M0 0 C2.31 0.33 4.62 0.66 7 1 C7.33 2.65 7.66 4.3 8 6 C8.66 6 9.32 6 10 6 C10.33 4.35 10.66 2.7 11 1 C12.65 1 14.3 1 16 1 C15.01 1.33 14.02 1.66 13 2 C13 3.98 13 5.96 13 8 C11.25 8.6875 11.25 8.6875 9 9 C6.75 7.75 6.75 7.75 5 6 C5 5.01 5 4.02 5 3 C3.35 2.67 1.7 2.34 0 2 C0 1.34 0 0.68 0 0 Z " fill="#053229" transform="translate(93,270)"/>
<path d="M0 0 C1.32 0.33 2.64 0.66 4 1 C2.88200014 2.33920838 1.75538103 3.67122556 0.625 5 C-0.00148438 5.7425 -0.62796875 6.485 -1.2734375 7.25 C-2.12808594 8.11625 -2.12808594 8.11625 -3 9 C-3.66 9 -4.32 9 -5 9 C-6.00217064 12.58327753 -6.00217064 12.58327753 -5 16 C-5.99 16 -6.98 16 -8 16 C-8 14.02 -8 12.04 -8 10 C-7.34 10 -6.68 10 -6 10 C-6 8.02 -6 6.04 -6 4 C-4.35 3.67 -2.7 3.34 -1 3 C-0.67 2.01 -0.34 1.02 0 0 Z " fill="#1F271B" transform="translate(49,232)"/>
<path d="M0 0 C1.32 0 2.64 0 4 0 C3.125 5.75 3.125 5.75 2 8 C-5.59 8 -13.18 8 -21 8 C-21 7.67 -21 7.34 -21 7 C-13.74 7 -6.48 7 1 7 C0.67 4.69 0.34 2.38 0 0 Z " fill="#1C292B" transform="translate(144,288)"/>
<path d="M0 0 C0.33 1.32 0.66 2.64 1 4 C0.34 4 -0.32 4 -1 4 C-1 4.66 -1 5.32 -1 6 C-1.66 6 -2.32 6 -3 6 C-3.268125 6.639375 -3.53625 7.27875 -3.8125 7.9375 C-5 10 -5 10 -8 11 C-10.6875 10.0625 -10.6875 10.0625 -13 9 C-12.67 8.34 -12.34 7.68 -12 7 C-11.42765625 7.24621094 -10.8553125 7.49242187 -10.265625 7.74609375 C-7.85289314 8.28236888 -7.85289314 8.28236888 -5.859375 6.34765625 C-4.81523438 5.21650391 -4.81523438 5.21650391 -3.75 4.0625 C-2.69039062 2.93521484 -2.69039062 2.93521484 -1.609375 1.78515625 C-0.81273437 0.90150391 -0.81273437 0.90150391 0 0 Z " fill="#212419" transform="translate(57,241)"/>
<path d="M0 0 C0.33 1.32 0.66 2.64 1 4 C0.34 4 -0.32 4 -1 4 C-1.33 5.98 -1.66 7.96 -2 10 C-0.35 10 1.3 10 3 10 C2.01 11.485 2.01 11.485 1 13 C-2.26954202 12.43628586 -3.82575883 11.50037734 -6 9 C-5.34 7.35 -4.68 5.7 -4 4 C-3.34 4 -2.68 4 -2 4 C-1.34 2.68 -0.68 1.36 0 0 Z " fill="#D3B14D" transform="translate(48,237)"/>
<path d="M0 0 C0.99 0 1.98 0 3 0 C3 2.97 3 5.94 3 9 C0.36 9 -2.28 9 -5 9 C-3.74458443 6.48916886 -2.49936512 6.12874554 0 5 C-0.2784375 4.0409375 -0.2784375 4.0409375 -0.5625 3.0625 C-0.706875 2.381875 -0.85125 1.70125 -1 1 C-0.67 0.67 -0.34 0.34 0 0 Z " fill="#FAFAFA" transform="translate(379,269)"/>
<path d="M0 0 C1.2077558 3.62326739 0.54311128 4.64146369 -1 8 C-0.34 8.33 0.32 8.66 1 9 C0.01 9.33 -0.98 9.66 -2 10 C-2.66 9.34 -3.32 8.68 -4 8 C-5.65 8.66 -7.3 9.32 -9 10 C-8.06409496 8.8944811 -7.12620142 7.79064547 -6.1875 6.6875 C-5.66542969 6.07261719 -5.14335938 5.45773438 -4.60546875 4.82421875 C-3.12827531 3.14575321 -1.59960869 1.56117966 0 0 Z " fill="#212722" transform="translate(67,231)"/>
<path d="M0 0 C1.47968324 0.14049518 2.95874516 0.28754826 4.4375 0.4375 C5.67306641 0.55931641 5.67306641 0.55931641 6.93359375 0.68359375 C9 1 9 1 10 2 C10.07205511 3.68608966 10.08386068 5.37500659 10.0625 7.0625 C10.05347656 7.98160156 10.04445313 8.90070313 10.03515625 9.84765625 C10.02355469 10.55792969 10.01195312 11.26820313 10 12 C9.67 12 9.34 12 9 12 C9 9.03 9 6.06 9 3 C8.01 3.66 7.02 4.32 6 5 C6 5.66 6 6.32 6 7 C4.68 6.34 3.36 5.68 2 5 C2.33 4.34 2.66 3.68 3 3 C2.01 2.01 1.02 1.02 0 0 Z " fill="#9FA0A0" transform="translate(373,266)"/>
<path d="M0 0 C1.12377697 3.30435084 0.89554742 5.0506862 -0.4375 8.25 C-0.72496094 8.95640625 -1.01242188 9.6628125 -1.30859375 10.390625 C-1.53675781 10.92171875 -1.76492187 11.4528125 -2 12 C-2.33 12 -2.66 12 -3 12 C-3 10.35 -3 8.7 -3 7 C-4.32 6.34 -5.64 5.68 -7 5 C-6.34 5 -5.68 5 -5 5 C-5 4.34 -5 3.68 -5 3 C-2.5 1.375 -2.5 1.375 0 0 Z " fill="#B9B8B6" transform="translate(214,233)"/>
<path d="M0 0 C0 0.99 0 1.98 0 3 C-0.66 3.66 -1.32 4.32 -2 5 C-2 6.32 -2 7.64 -2 9 C-2.639375 9.12375 -3.27875 9.2475 -3.9375 9.375 C-4.618125 9.58125 -5.29875 9.7875 -6 10 C-6.33 10.66 -6.66 11.32 -7 12 C-8.32 11.67 -9.64 11.34 -11 11 C-7.37 7.37 -3.74 3.74 0 0 Z " fill="#CAA63C" transform="translate(60,225)"/>
<path d="M0 0 C1.65 0 3.3 0 5 0 C4.67 2.64 4.34 5.28 4 8 C2.68 8 1.36 8 0 8 C0 5.36 0 2.72 0 0 Z " fill="#C13D46" transform="translate(71,270)"/>
<path d="M0 0 C1.64574566 -0.02688151 3.29161413 -0.04634123 4.9375 -0.0625 C5.85402344 -0.07410156 6.77054687 -0.08570313 7.71484375 -0.09765625 C10 0 10 0 11 1 C11.07205511 2.68608966 11.08386068 4.37500659 11.0625 6.0625 C11.05347656 6.98160156 11.04445313 7.90070313 11.03515625 8.84765625 C11.02355469 9.55792969 11.01195312 10.26820313 11 11 C9.68 10.67 8.36 10.34 7 10 C7.33 9.34 7.66 8.68 8 8 C8.36141955 5.67085177 8.69699525 3.33746522 9 1 C6.03 1 3.06 1 0 1 C0 0.67 0 0.34 0 0 Z " fill="#838287" transform="translate(372,226)"/>
<path d="M0 0 C1.32 0.33 2.64 0.66 4 1 C3.360625 1.474375 2.72125 1.94875 2.0625 2.4375 C-2.22656786 6.02631188 -6.08660872 10.00987556 -10 14 C-10 11 -10 11 -7.8125 8.6875 C-6.884375 7.800625 -5.95625 6.91375 -5 6 C-3.28560927 4.0354009 -1.64640695 2.02272854 0 0 Z " fill="#D5B242" transform="translate(81,214)"/>
<path d="M0 0 C2.7697841 1.4714478 4.19083529 3.54259201 6 6.0625 C4.865625 5.8975 3.73125 5.7325 2.5625 5.5625 C0.28867481 5.20617797 0.28867481 5.20617797 -2 5.0625 C-3.33568021 4.73869874 -4.66923011 4.40592449 -6 4.0625 C-2.62256809 0.08195525 -2.62256809 0.08195525 0 0 Z " fill="#28271B" transform="translate(84,215.9375)"/>
<path d="M0 0 C0.66 0 1.32 0 2 0 C1.34 4.95 0.68 9.9 0 15 C-0.99 15 -1.98 15 -3 15 C-3.66 14.01 -4.32 13.02 -5 12 C-4.01 12 -3.02 12 -2 12 C-1.34 8.04 -0.68 4.08 0 0 Z " fill="#C4A749" transform="translate(143,194)"/>
<path d="M0 0 C0.66 1.32 1.32 2.64 2 4 C0.96875 3.731875 -0.0625 3.46375 -1.125 3.1875 C-5.18449759 2.9910727 -5.57538732 3.00572884 -8.4375 5.4375 C-9.283125 6.283125 -10.12875 7.12875 -11 8 C-10.8125 5.125 -10.8125 5.125 -10 2 C-6.69419699 -0.02021295 -3.81697699 -0.21811297 0 0 Z " fill="#1B241A" transform="translate(86,202)"/>
<path d="M0 0 C-0.350625 0.556875 -0.70125 1.11375 -1.0625 1.6875 C-2.21845993 4.53886783 -1.80967438 6.08517222 -1 9 C-1.66 9 -2.32 9 -3 9 C-3.33 9.66 -3.66 10.32 -4 11 C-5.01382963 7.3791799 -5.49897691 3.72188582 -6 0 C-3.50907189 -1.24546405 -2.58919267 -0.7767578 0 0 Z " fill="#D3D3D3" transform="translate(319,235)"/>
<path d="M0 0 C0.66 0.33 1.32 0.66 2 1 C0.71451591 2.33929505 -0.57858155 3.67128643 -1.875 5 C-2.59429687 5.7425 -3.31359375 6.485 -4.0546875 7.25 C-6 9 -6 9 -8 9 C-7.33333333 6.33333333 -6.66666667 3.66666667 -6 1 C-5.34 1 -4.68 1 -4 1 C-3.67 1.66 -3.34 2.32 -3 3 C-2.01 2.01 -1.02 1.02 0 0 Z " fill="#033033" transform="translate(132,215)"/>
<path d="M0 0 C0.33 0.66 0.66 1.32 1 2 C-0.5608131 5.04358554 -2.19373073 7.97948613 -5 10 C-6.32 9.67 -7.64 9.34 -9 9 C-6.03 6.03 -3.06 3.06 0 0 Z " fill="#262A1A" transform="translate(116,221)"/>
<path d="M0 0 C2 3 2 3 2 6 C2.66 6 3.32 6 4 6 C3.67 6.66 3.34 7.32 3 8 C0.03 7.505 0.03 7.505 -3 7 C-2.25 2.25 -2.25 2.25 0 0 Z " fill="#16292C" transform="translate(120,217)"/>
<path d="M0 0 C0.86625 0.4640625 0.86625 0.4640625 1.75 0.9375 C3.84294184 1.92583364 5.74535275 2.5168613 8 3 C8 3.66 8 4.32 8 5 C8.99 5 9.98 5 11 5 C11 5.66 11 6.32 11 7 C9.234375 7.7109375 9.234375 7.7109375 7 8 C5.078125 6.6015625 5.078125 6.6015625 3.25 4.625 C2.63640625 3.97789062 2.0228125 3.33078125 1.390625 2.6640625 C0 1 0 1 0 0 Z " fill="#1B2416" transform="translate(95,213)"/>
<path d="M0 0 C0.66 0 1.32 0 2 0 C2 1.32 2 2.64 2 4 C3.65 4.33 5.3 4.66 7 5 C7 5.66 7 6.32 7 7 C4.69 7 2.38 7 0 7 C0 4.69 0 2.38 0 0 Z " fill="#2F162B" transform="translate(75,235)"/>
<path d="M0 0 C4.95696581 1.23924145 7.11658466 2.78577758 10 7 C9.67 7.66 9.34 8.32 9 9 C7.02 7.68 5.04 6.36 3 5 C3.33 4.01 3.66 3.02 4 2 C2.68 2 1.36 2 0 2 C0 1.34 0 0.68 0 0 Z " fill="#B2B3B4" transform="translate(422,226)"/>
<path d="M0 0 C1.32 0 2.64 0 4 0 C4 2.64 4 5.28 4 8 C3.67 6.68 3.34 5.36 3 4 C1.02 4.99 1.02 4.99 -1 6 C-1.33 5.01 -1.66 4.02 -2 3 C-1.34 2.01 -0.68 1.02 0 0 Z " fill="#0AA14B" transform="translate(133,218)"/>
<path d="M0 0 C0.66 0 1.32 0 2 0 C2 1.65 2 3.3 2 5 C5.96 5 9.92 5 14 5 C14 5.33 14 5.66 14 6 C9.71 6 5.42 6 1 6 C0.34 4.35 -0.32 2.7 -1 1 C-0.67 0.67 -0.34 0.34 0 0 Z " fill="#767679" transform="translate(419,273)"/>
<path d="M0 0 C1.65 0 3.3 0 5 0 C5 0.66 5 1.32 5 2 C4.01 2 3.02 2 2 2 C2 3.98 2 5.96 2 8 C0.35 8 -1.3 8 -3 8 C-2.01 7.67 -1.02 7.34 0 7 C0 4.69 0 2.38 0 0 Z " fill="#491A30" transform="translate(75,271)"/>
<path d="M0 0 C1.485 0.99 1.485 0.99 3 2 C6.14221967 1.68493373 6.14221967 1.68493373 9 1 C8.34 2.98 7.68 4.96 7 7 C4.0625 5.75 4.0625 5.75 1 4 C0.125 1.8125 0.125 1.8125 0 0 Z " fill="#23311C" transform="translate(98,230)"/>
<path d="M0 0 C0.87840996 3.09720845 0.99435406 4.90645403 0 8 C0.66 8.33 1.32 8.66 2 9 C1.360625 9.103125 0.72125 9.20625 0.0625 9.3125 C-0.9584375 9.6528125 -0.9584375 9.6528125 -2 10 C-2.33 10.99 -2.66 11.98 -3 13 C-4 11 -4 11 -3.22265625 8.3984375 C-2.83980469 7.40070313 -2.45695313 6.40296875 -2.0625 5.375 C-1.68222656 4.37210938 -1.30195313 3.36921875 -0.91015625 2.3359375 C-0.60980469 1.56507813 -0.30945313 0.79421875 0 0 Z " fill="#97979B" transform="translate(198,237)"/>
<path d="M0 0 C0.33 0 0.66 0 1 0 C1.33 1.98 1.66 3.96 2 6 C5.63 6.33 9.26 6.66 13 7 C13 7.33 13 7.66 13 8 C8.38 8 3.76 8 -1 8 C-0.67 5.36 -0.34 2.72 0 0 Z " fill="#A5A7AA" transform="translate(389,235)"/>
<path d="M0 0 C2.08268593 -0.08126087 4.16628658 -0.13930839 6.25 -0.1875 C7.99023438 -0.23970703 7.99023438 -0.23970703 9.765625 -0.29296875 C13.22268407 0.02017066 14.51565563 0.65709108 17 3 C15.35 3.33 13.7 3.66 12 4 C12 3.01 12 2.02 12 1 C8.04 1 4.08 1 0 1 C0 0.67 0 0.34 0 0 Z " fill="#B5B6B6" transform="translate(321,225)"/>
<path d="M0 0 C0.66 0 1.32 0 2 0 C1.67 0.99 1.34 1.98 1 3 C0.34 3 -0.32 3 -1 3 C-1 3.66 -1 4.32 -1 5 C-1.66 5 -2.32 5 -3 5 C-3.33 6.32 -3.66 7.64 -4 9 C-5.32 9 -6.64 9 -8 9 C-8 8.34 -8 7.68 -8 7 C-6.68 6.67 -5.36 6.34 -4 6 C-4 5.34 -4 4.68 -4 4 C-3.34 4 -2.68 4 -2 4 C-2 3.34 -2 2.68 -2 2 C-1.34 2 -0.68 2 0 2 C0 1.34 0 0.68 0 0 Z " fill="#D1A834" transform="translate(110,214)"/>
<path d="M0 0 C0.66 0.33 1.32 0.66 2 1 C1.67 1.99 1.34 2.98 1 4 C-4.28 4 -9.56 4 -15 4 C-15 3.67 -15 3.34 -15 3 C-10.05 2.67 -5.1 2.34 0 2 C0 1.34 0 0.68 0 0 Z " fill="#74777C" transform="translate(250,275)"/>
<path d="M0 0 C1.98 0 3.96 0 6 0 C5.01 1.98 4.02 3.96 3 6 C2.34 5.67 1.68 5.34 1 5 C0.375 2.4375 0.375 2.4375 0 0 Z " fill="#012C2A" transform="translate(132,271)"/>
<path d="M0 0 C2.25 0.125 2.25 0.125 5 1 C7.3125 4.0625 7.3125 4.0625 9 7 C8.67 7.66 8.34 8.32 8 9 C6.66368764 7.6905332 5.33102075 6.37734515 4 5.0625 C3.2575 4.33160156 2.515 3.60070312 1.75 2.84765625 C0 1 0 1 0 0 Z " fill="#DFBA43" transform="translate(89,220)"/>
<path d="M0 0 C2.31 0.33 4.62 0.66 7 1 C7 2.65 7 4.3 7 6 C6.34 6 5.68 6 5 6 C5 5.01 5 4.02 5 3 C3.35 2.67 1.7 2.34 0 2 C0 1.34 0 0.68 0 0 Z " fill="#421729" transform="translate(64,270)"/>
<path d="M0 0 C0.97744926 3.04095325 1.16271218 4.99632687 0 8 C-1.5625 9.75 -1.5625 9.75 -3 11 C-2.44894091 7.0507432 -1.61064629 3.65079826 0 0 Z " fill="#AAACAC" transform="translate(206,216)"/>
<path d="M0 0 C0.66 0 1.32 0 2 0 C2 1.32 2 2.64 2 4 C1.34 4 0.68 4 0 4 C0 4.66 0 5.32 0 6 C-1.32 6 -2.64 6 -4 6 C-4 5.34 -4 4.68 -4 4 C-3.34 4 -2.68 4 -2 4 C-2 3.34 -2 2.68 -2 2 C-1.34 2 -0.68 2 0 2 C0 1.34 0 0.68 0 0 Z " fill="#DCAC37" transform="translate(116,208)"/>
<path d="M0 0 C0.33 1.32 0.66 2.64 1 4 C-0.1875 5.8125 -0.1875 5.8125 -2 7 C-3.32 6.67 -4.64 6.34 -6 6 C-4.02 4.02 -2.04 2.04 0 0 Z " fill="#C7A33C" transform="translate(79,206)"/>
<path d="M0 0 C0.66 1.32 1.32 2.64 2 4 C2.66 2.68 3.32 1.36 4 0 C4 1.98 4 3.96 4 6 C2.68 6.33 1.36 6.66 0 7 C0 4.69 0 2.38 0 0 Z " fill="#24945D" transform="translate(128,271)"/>
<path d="M0 0 C2.97 0 5.94 0 9 0 C9 0.33 9 0.66 9 1 C8.06027344 1.30744141 8.06027344 1.30744141 7.1015625 1.62109375 C6.28429687 1.89050781 5.46703125 2.15992188 4.625 2.4375 C3.81289063 2.70433594 3.00078125 2.97117188 2.1640625 3.24609375 C-0.01031799 3.95179729 -0.01031799 3.95179729 -2 5 C-1.34 3.35 -0.68 1.7 0 0 Z " fill="#A0A0A1" transform="translate(405,235)"/>
<path d="M0 0 C1.98 1.65 3.96 3.3 6 5 C4.125 5.625 4.125 5.625 2 6 C1.34 5.34 0.68 4.68 0 4 C0 2.68 0 1.36 0 0 Z " fill="#29291A" transform="translate(92,224)"/>
<path d="M0 0 C1.14926266 0.95421808 2.29430541 1.91352045 3.4375 2.875 C4.07558594 3.40867188 4.71367188 3.94234375 5.37109375 4.4921875 C7 6 7 6 8 8 C6.68 7.67 5.36 7.34 4 7 C4 6.34 4 5.68 4 5 C3.01 4.67 2.02 4.34 1 4 C0.3125 1.9375 0.3125 1.9375 0 0 Z " fill="#C2A441" transform="translate(94,213)"/>
<path d="M0 0 C1.8871875 0.061875 1.8871875 0.061875 3.8125 0.125 C0.58513488 2.27657675 -1.01480747 3.31590344 -4.875 2.6875 C-6.0196875 2.4090625 -6.0196875 2.4090625 -7.1875 2.125 C-4.09861478 0.06574319 -3.47814073 -0.1140374 0 0 Z " fill="#949798" transform="translate(409.1875,245.875)"/>
<path d="M0 0 C3 1 3 1 4.1875 3.0625 C4.455625 3.701875 4.72375 4.34125 5 5 C3.35 5 1.7 5 0 5 C0 3.35 0 1.7 0 0 Z " fill="#03272D" transform="translate(105,238)"/>
<path d="M0 0 C0.33 1.32 0.66 2.64 1 4 C0.34 4 -0.32 4 -1 4 C-1 4.66 -1 5.32 -1 6 C-2.32 5.67 -3.64 5.34 -5 5 C-3.35 3.35 -1.7 1.7 0 0 Z " fill="#C8A342" transform="translate(66,219)"/>
</svg>
